<?xml version="1.0" encoding="utf-8"?>
<!-- Generator: Adobe Illustrator 16.0.0, SVG Export Plug-In . SVG Version: 6.00 Build 0)  -->
<!DOCTYPE svg PUBLIC "-//W3C//DTD SVG 1.1//EN" "http://www.w3.org/Graphics/SVG/1.1/DTD/svg11.dtd">
<svg version="1.1" xmlns="http://www.w3.org/2000/svg" xmlns:xlink="http://www.w3.org/1999/xlink" x="0px" y="0px" width="200px"
	 height="150px" viewBox="0 0 200 150" enable-background="new 0 0 200 150" xml:space="preserve">
<g id="レイヤー_1">
</g>
<g id="section1Image">
	<path id="_x33_D" fill="#FFFFFF" d="M85.749,100.755c0,24.677-19.304,41.255-48.036,41.255c-15.062,0-27.245-4.57-33.621-8.83
		l-3.816-2.551l8.047-33.025l6.631,4.08c3.476,2.146,12.334,6.192,21.021,6.192c3.025,0,12.909-0.614,12.909-8.515
		c0-9.635-13.299-9.918-14.817-9.918H18.327V57.236h15.41c4.753,0,12.282-1.787,12.282-6.589c0-4.664-5.805-5.364-9.271-5.364
		c-7.088,0-14.809,3.511-18.271,5.865l-6.675,4.544L3.579,23.394l3.701-2.625c6.254-4.432,19.172-9.616,35.016-9.616
		c27.452,0,39.958,18.105,39.958,34.938c0,10.481-3.898,19.371-11.016,25.677C80.247,77.99,85.749,88.488,85.749,100.755z
		 M199.725,71.667c0,28.204-10.674,44.288-19.635,52.81c-12.009,11.025-30.395,16.83-53.253,16.83
		c-13.292,0-22.667-0.988-28.188-1.818l-5.126-0.76V11.593l4.987-0.891c9.812-1.742,21.688-2.711,33.396-2.711
		c21.18,0,35.805,4.296,47.406,13.931C192.663,32.901,199.73,50.099,199.725,71.667z M162.391,72.541
		c0-20.235-9.663-30.932-27.953-30.932c-1.979,0-3.633,0.08-4.998,0.193v65.529c0.875,0.01,1.729,0.01,2.469,0.01h0.009
		c9.976,0,17.371-2.791,22.417-8.282C159.675,93.238,162.391,84.312,162.391,72.541z"/>
</g>
</svg>
