<?xml version="1.0" encoding="utf-8"?>
<!-- Generator: Adobe Illustrator 16.0.0, SVG Export Plug-In . SVG Version: 6.00 Build 0)  -->
<!DOCTYPE svg PUBLIC "-//W3C//DTD SVG 1.1//EN" "http://www.w3.org/Graphics/SVG/1.1/DTD/svg11.dtd">
<svg version="1.1" id="Objects" xmlns="http://www.w3.org/2000/svg" xmlns:xlink="http://www.w3.org/1999/xlink" x="0px" y="0px"
	 width="200px" height="200px" viewBox="0 0 200 200" enable-background="new 0 0 200 200" xml:space="preserve">
<path fill="none" stroke="#963472" stroke-miterlimit="10" d="M38.372,32.499c-2.155,1.967-6.447,0.777-9.64-2.648
	c-1.182,1.198-2.328,2.422-3.438,3.666c3.488,2.948,4.881,7.043,3.092,9.282c-1.79,2.242-6.096,1.79-9.745-0.965
	c-0.975,1.36-1.913,2.74-2.81,4.139c3.773,2.375,5.697,6.112,4.304,8.561c-1.392,2.452-5.592,2.714-9.567,0.68
	c-0.745,1.488-1.45,2.992-2.117,4.51c3.97,1.778,6.346,5.101,5.371,7.692c-0.975,2.594-4.96,3.527-9.122,2.244
	c-0.503,1.583-0.963,3.174-1.384,4.775c4.075,1.177,6.832,4.029,6.285,6.689c-0.547,2.668-4.214,4.202-8.433,3.67
	c-0.251,1.642-0.462,3.288-0.632,4.938c4.104,0.579,7.161,2.927,7.04,5.594c-0.121,2.68-3.411,4.748-7.575,4.937
	c0.004,1.661,0.051,3.321,0.137,4.98c4.066-0.018,7.367,1.809,7.66,4.427c0.295,2.633-2.555,5.161-6.562,6.029
	c0.26,1.642,0.559,3.275,0.902,4.906c3.957-0.604,7.431,0.687,8.125,3.198c0.696,2.533-1.676,5.446-5.44,6.942
	c0.509,1.581,1.058,3.151,1.649,4.71c3.782-1.173,7.365-0.434,8.435,1.92c1.076,2.376-0.775,5.595-4.211,7.665
	c0.748,1.481,1.535,2.95,2.365,4.402c3.528-1.714,7.141-1.529,8.555,0.611c1.429,2.167,0.127,5.612-2.906,8.188
	c0.968,1.348,1.975,2.679,3.019,3.988c3.204-2.214,6.776-2.589,8.499-0.703c1.746,1.912,1.006,5.51-1.577,8.528
	c1.174,1.194,2.371,2.358,3.59,3.483c2.819-2.688,6.289-3.619,8.286-2.026c2.032,1.624,1.853,5.313-0.248,8.707
	c1.339,1.001,2.7,1.961,4.08,2.888c2.365-3.13,5.67-4.611,7.902-3.344c2.276,1.295,2.666,5.007,1.084,8.711
	c1.476,0.777,2.967,1.517,4.473,2.218c1.842-3.511,4.903-5.522,7.325-4.613c2.468,0.929,3.428,4.584,2.408,8.525
	c1.576,0.538,3.164,1.035,4.759,1.496c1.257-3.809,3.986-6.324,6.543-5.801c2.608,0.535,4.132,4.061,3.699,8.167
	c1.637,0.286,3.281,0.535,4.929,0.744c0.615-4.026,2.938-7.006,5.572-6.887c2.699,0.123,4.775,3.454,4.941,7.655
	c1.658,0.033,3.319,0.024,4.979-0.024c-0.079-4.152,1.764-7.554,4.424-7.854c2.726-0.306,5.34,2.757,6.116,6.984
	c1.643-0.221,3.28-0.485,4.912-0.788c-0.811-4.177,0.479-7.935,3.104-8.659c2.693-0.742,5.817,1.985,7.21,6.167
	c1.588-0.473,3.163-0.989,4.731-1.544c-1.563-4.077-0.895-8.118,1.631-9.266c2.589-1.176,6.178,1.13,8.188,5.171
	c1.498-0.72,2.983-1.479,4.453-2.278c-2.3-3.835-2.316-8.049,0.037-9.604c2.417-1.591,6.414,0.211,9.032,4.02
	c1.371-0.948,2.724-1.935,4.058-2.963c-2.997-3.457-3.733-7.729-1.615-9.665c2.175-1.983,6.521-0.761,9.719,2.729
	c1.226-1.166,2.413-2.358,3.567-3.57c-3.645-2.958-5.124-7.174-3.301-9.459c1.841-2.304,6.341-1.771,10.05,1.192
	c0.064,0.051,0.123,0.104,0.184,0.157c1.039-1.353,2.035-2.729,2.994-4.126c-0.046-0.024-0.092-0.046-0.138-0.072
	c-4.129-2.345-6.294-6.322-4.839-8.888c1.458-2.562,5.985-2.739,10.111-0.395c0.146,0.085,0.282,0.172,0.42,0.259
	c0.818-1.517,1.596-3.047,2.329-4.596c-0.126-0.044-0.25-0.08-0.376-0.129c-4.446-1.667-7.206-5.258-6.171-8.021
	c1.039-2.756,5.482-3.641,9.927-1.971c0.227,0.088,0.446,0.18,0.666,0.276c0.572-1.639,1.103-3.289,1.588-4.95
	c-0.201-0.034-0.405-0.065-0.61-0.106c-4.651-0.953-7.941-4.067-7.349-6.957c0.594-2.89,4.845-4.456,9.495-3.501
	c0.302,0.063,0.598,0.136,0.89,0.216c0.31-1.721,0.574-3.449,0.793-5.183c-0.267,0.002-0.534,0-0.806-0.013
	c-4.744-0.213-8.481-2.775-8.348-5.722c0.135-2.946,4.09-5.158,8.831-4.942c0.375,0.017,0.739,0.056,1.098,0.099
	c0.038-1.767,0.023-3.535-0.033-5.301c-0.32,0.058-0.646,0.11-0.979,0.147c-4.719,0.53-8.808-1.414-9.139-4.347
	c-0.327-2.93,3.231-5.734,7.948-6.262c0.43-0.049,0.85-0.068,1.267-0.078c-0.244-1.769-0.533-3.531-0.875-5.287
	c-0.354,0.131-0.719,0.254-1.097,0.357c-4.578,1.262-8.922-0.02-9.706-2.862c-0.783-2.843,2.293-6.17,6.871-7.43
	c0.463-0.126,0.922-0.222,1.378-0.298c-0.526-1.719-1.102-3.427-1.724-5.123c-0.363,0.208-0.739,0.408-1.135,0.585
	c-4.323,1.964-8.815,1.377-10.034-1.309c-1.219-2.685,1.3-6.451,5.624-8.412c0.468-0.211,0.937-0.389,1.402-0.542
	c-0.797-1.62-1.637-3.224-2.53-4.809c-0.344,0.28-0.704,0.552-1.092,0.806c-3.962,2.616-8.489,2.739-10.114,0.279
	c-1.623-2.463,0.276-6.575,4.24-9.188c0.438-0.29,0.884-0.542,1.332-0.772c-1.046-1.471-2.139-2.918-3.274-4.346
	c-0.3,0.333-0.617,0.661-0.961,0.976c-3.506,3.205-7.958,4.035-9.948,1.857c-1.988-2.177-0.756-6.537,2.749-9.738
	c0.388-0.354,0.788-0.675,1.196-0.971c-1.277-1.303-2.581-2.562-3.912-3.779c-0.246,0.376-0.506,0.748-0.797,1.113
	c-2.961,3.714-7.229,5.229-9.536,3.39c-2.305-1.841-1.77-6.339,1.192-10.048c0.326-0.409,0.669-0.786,1.023-1.138
	c-1.465-1.081-2.95-2.12-4.46-3.111c-0.179,0.405-0.375,0.807-0.604,1.207c-2.343,4.129-6.322,6.295-8.888,4.839
	c-2.562-1.456-2.738-5.984-0.395-10.11c0.249-0.436,0.518-0.846,0.799-1.236c-1.606-0.827-3.236-1.606-4.878-2.34
	c-0.11,0.399-0.233,0.8-0.385,1.204c-1.67,4.446-5.262,7.206-8.022,6.171c-2.759-1.039-3.642-5.482-1.971-9.925
	c0.162-0.432,0.347-0.844,0.544-1.241c-1.705-0.554-3.421-1.068-5.146-1.53c-0.046,0.373-0.102,0.747-0.179,1.125
	c-0.954,4.651-4.068,7.941-6.957,7.35c-2.889-0.595-4.456-4.846-3.5-9.496c0.082-0.398,0.185-0.782,0.297-1.157
	c-1.75-0.275-3.507-0.503-5.267-0.685c0.005,0.318,0.004,0.638-0.01,0.965c-0.213,4.744-2.776,8.479-5.722,8.349
	c-2.947-0.136-5.159-4.089-4.943-8.832C99.646,0.673,99.68,0.334,99.72,0c-1.751,0.003-3.503,0.058-5.255,0.154
	c0.043,0.257,0.081,0.515,0.112,0.781c0.531,4.717-1.417,8.807-4.345,9.139c-2.932,0.326-5.735-3.231-6.264-7.95
	c-0.032-0.277-0.051-0.553-0.067-0.824c-1.711,0.279-3.417,0.599-5.115,0.965c0.059,0.188,0.122,0.374,0.175,0.565
	c1.262,4.577-0.021,8.921-2.863,9.708c-2.843,0.782-6.169-2.296-7.431-6.872c-0.053-0.201-0.098-0.402-0.146-0.604
	c-1.628,0.54-3.246,1.124-4.851,1.75c0.053,0.11,0.111,0.218,0.162,0.332c1.964,4.325,1.376,8.815-1.308,10.036
	c-2.687,1.216-6.453-1.302-8.413-5.624c-0.053-0.117-0.096-0.233-0.145-0.351c-1.505,0.782-2.996,1.604-4.468,2.468
	c0.023,0.034,0.047,0.065,0.069,0.098c2.614,3.966,2.738,8.493,0.277,10.119c-2.463,1.623-6.575-0.275-9.188-4.239
	c-0.021-0.034-0.039-0.069-0.061-0.101c-1.349,0.997-2.678,2.035-3.988,3.109C39.73,26.149,40.526,30.532,38.372,32.499z
	 M34.1,86.25c-3.83-1.214-5.95-5.305-4.735-9.134c1.216-3.83,5.306-5.95,9.135-4.734c3.83,1.214,5.95,5.304,4.734,9.134
	C42.021,85.346,37.93,87.466,34.1,86.25z M40.49,154.413c-18.055-19.776-25.769-47.68-15.4-57.147
	c10.369-9.467,33.754,4.131,51.809,23.905c18.055,19.776,29.474,44.297,19.106,53.766C85.635,184.402,58.545,174.188,40.49,154.413z
	 M116.461,172.507c-3.926,0.863-7.805-1.619-8.668-5.544c-0.862-3.925,1.618-7.806,5.543-8.666c3.925-0.865,7.806,1.617,8.668,5.541
	C122.866,167.763,120.385,171.645,116.461,172.507z M166.918,66.121c13.383,4.247,18.082,32.814,9.984,58.339
	s-28.408,46.156-41.792,41.909c-13.383-4.245-13.298-31.296-5.2-56.819C138.008,84.027,153.534,61.875,166.918,66.121z
	 M155.524,49.385c2.709,2.967,2.5,7.569-0.468,10.278c-2.967,2.709-7.569,2.5-10.278-0.467s-2.5-7.569,0.467-10.278
	C148.212,46.208,152.814,46.417,155.524,49.385z M114.659,86.695c7.372,8.075,6.804,20.597-1.271,27.969
	c-8.073,7.372-20.595,6.803-27.967-1.272c-7.372-8.074-6.804-20.597,1.271-27.968C94.766,78.051,107.288,78.621,114.659,86.695z
	 M82.757,21.299c26.151-5.749,54.175,1.524,57.189,15.237c3.014,13.714-20.453,27.166-46.606,32.914
	c-26.154,5.749-53.1,3.378-56.114-10.335S56.603,27.048,82.757,21.299z M82.551,198.468c1.637,0.286,3.281,0.535,4.929,0.744
	c0.089-0.587,0.218-1.146,0.377-1.683c-1.754-0.218-3.501-0.484-5.245-0.798C82.631,197.294,82.614,197.871,82.551,198.468z
	 M102.973,199.956c-0.011-0.587,0.021-1.161,0.084-1.714c-1.751,0.054-3.5,0.062-5.25,0.021c0.097,0.551,0.161,1.125,0.187,1.717
	C99.652,200.014,101.312,200.005,102.973,199.956z M198.881,101.905c0.375,0.017,0.739,0.056,1.098,0.099
	c0.038-1.767,0.023-3.535-0.033-5.301c-0.32,0.058-0.646,0.11-0.979,0.147c-0.246,0.027-0.489,0.044-0.73,0.059
	c0.052,1.662,0.063,3.326,0.031,4.989C198.473,101.896,198.675,101.896,198.881,101.905z M197.776,86.242
	c0.43-0.049,0.85-0.068,1.267-0.078c-0.244-1.769-0.533-3.531-0.875-5.287c-0.354,0.131-0.719,0.254-1.097,0.357
	c-0.189,0.052-0.376,0.093-0.562,0.136c0.315,1.641,0.587,3.286,0.818,4.936C197.478,86.285,197.625,86.257,197.776,86.242z
	 M194.236,70.943c0.463-0.126,0.922-0.222,1.378-0.298c-0.526-1.719-1.102-3.427-1.724-5.123c-0.363,0.208-0.739,0.408-1.135,0.585
	c-0.143,0.064-0.286,0.119-0.428,0.18c0.573,1.573,1.108,3.157,1.601,4.751C194.032,71.008,194.131,70.972,194.236,70.943z
	 M72.309,196.102c0.188-0.567,0.411-1.103,0.658-1.604c-1.713-0.49-3.413-1.021-5.099-1.603c-0.065,0.56-0.167,1.132-0.318,1.711
	C69.125,195.144,70.713,195.641,72.309,196.102z M57.817,190.693c0.279-0.531,0.589-1.023,0.917-1.481
	c-1.624-0.751-3.229-1.552-4.817-2.397c-0.148,0.548-0.336,1.105-0.573,1.661C54.82,189.253,56.311,189.992,57.817,190.693z
	 M44.357,183.108c0.363-0.482,0.752-0.922,1.154-1.319c-1.495-0.998-2.967-2.041-4.415-3.129c-0.229,0.521-0.5,1.044-0.819,1.561
	C41.616,181.222,42.977,182.182,44.357,183.108z M197.521,117.549c0.302,0.063,0.598,0.136,0.89,0.216
	c0.31-1.721,0.574-3.449,0.793-5.183c-0.267,0.002-0.534,0-0.806-0.013c-0.307-0.014-0.608-0.038-0.907-0.072
	c-0.208,1.646-0.459,3.285-0.752,4.919C196.997,117.452,197.258,117.496,197.521,117.549z M188.346,56.387
	c0.468-0.211,0.937-0.389,1.402-0.542c-0.797-1.62-1.637-3.224-2.53-4.809c-0.344,0.28-0.704,0.552-1.092,0.806
	c-0.11,0.075-0.224,0.14-0.336,0.208c0.822,1.463,1.603,2.947,2.345,4.441C188.205,56.458,188.272,56.419,188.346,56.387z
	 M179.289,160.568c0.064,0.051,0.123,0.104,0.184,0.157c1.039-1.353,2.035-2.729,2.994-4.126c-0.046-0.024-0.092-0.046-0.138-0.072
	c-0.457-0.26-0.885-0.541-1.294-0.837c-0.939,1.362-1.916,2.711-2.932,4.036C178.505,159.981,178.901,160.258,179.289,160.568z
	 M18.641,41.833c-0.975,1.36-1.913,2.74-2.81,4.139c0.526,0.331,1.013,0.692,1.462,1.068c0.916-1.424,1.869-2.832,2.863-4.218
	C19.644,42.534,19.136,42.208,18.641,41.833z M155.765,180.965c0.367,0.415,0.719,0.858,1.047,1.339
	c1.371-0.948,2.724-1.935,4.058-2.963c-0.379-0.437-0.723-0.89-1.029-1.348C158.502,179.023,157.142,180.015,155.765,180.965z
	 M118.425,198.298c-0.112-0.577-0.18-1.142-0.214-1.694c-1.702,0.317-3.407,0.592-5.118,0.819c0.171,0.528,0.314,1.086,0.42,1.663
	C115.155,198.865,116.793,198.601,118.425,198.298z M30.052,31.089c-0.453-0.373-0.896-0.784-1.32-1.239
	c-1.182,1.198-2.328,2.422-3.438,3.666c0.474,0.401,0.907,0.824,1.302,1.262C27.71,33.524,28.863,32.295,30.052,31.089z
	 M193.73,132.787c0.227,0.088,0.446,0.18,0.666,0.276c0.572-1.639,1.103-3.289,1.588-4.95c-0.201-0.034-0.405-0.065-0.61-0.106
	c-0.362-0.075-0.713-0.167-1.056-0.267c-0.465,1.593-0.975,3.168-1.521,4.739C193.107,132.569,193.419,132.671,193.73,132.787z
	 M143.289,190.167c1.498-0.72,2.983-1.479,4.453-2.278c-0.299-0.5-0.558-1.004-0.779-1.508c-1.493,0.812-3.003,1.585-4.525,2.312
	C142.744,189.156,143.03,189.646,143.289,190.167z M133.471,194.262c-0.208-0.546-0.374-1.091-0.504-1.624
	c-1.613,0.569-3.237,1.101-4.871,1.585c0.241,0.5,0.459,1.028,0.644,1.583C130.327,195.333,131.902,194.816,133.471,194.262z
	 M187.602,147.245c0.146,0.085,0.282,0.172,0.42,0.259c0.818-1.517,1.596-3.047,2.329-4.596c-0.126-0.044-0.25-0.08-0.376-0.129
	c-0.417-0.155-0.812-0.332-1.197-0.521c-0.712,1.495-1.462,2.977-2.251,4.443C186.885,146.867,187.246,147.044,187.602,147.245z
	 M167.752,171.228c0.42,0.356,0.828,0.749,1.221,1.178c1.226-1.166,2.413-2.358,3.567-3.57c-0.451-0.366-0.867-0.749-1.25-1.147
	C170.147,168.891,168.967,170.071,167.752,171.228z M2.3,90.111c0.177-1.744,0.4-3.484,0.671-5.218
	c-0.586,0.009-1.188-0.021-1.805-0.099c-0.251,1.642-0.462,3.288-0.632,4.938C1.15,89.819,1.739,89.95,2.3,90.111z M110.233,2.331
	c1.65,0.171,3.299,0.384,4.94,0.641c0.031-0.196,0.061-0.394,0.102-0.592c0.082-0.398,0.185-0.782,0.297-1.157
	c-1.75-0.275-3.507-0.503-5.267-0.685c0.005,0.318,0.004,0.638-0.01,0.965C110.284,1.783,110.262,2.059,110.233,2.331z
	 M94.649,1.944c1.656-0.091,3.314-0.142,4.971-0.148c-0.001-0.257,0.001-0.514,0.011-0.777C99.646,0.673,99.68,0.334,99.72,0
	c-1.751,0.003-3.503,0.058-5.255,0.154c0.043,0.257,0.081,0.515,0.112,0.781C94.614,1.273,94.635,1.61,94.649,1.944z M5.014,75.062
	c0.439-1.677,0.917-3.341,1.444-4.993c-0.578-0.095-1.166-0.227-1.759-0.41c-0.503,1.583-0.963,3.174-1.384,4.775
	C3.912,74.608,4.478,74.821,5.014,75.062z M1.937,105.367c-0.095-1.772-0.143-3.543-0.142-5.315
	c-0.576,0.108-1.173,0.184-1.794,0.211c0.004,1.661,0.051,3.321,0.137,4.98C0.758,105.239,1.359,105.287,1.937,105.367z
	 M79.227,4.014c1.623-0.352,3.251-0.658,4.887-0.925c-0.06-0.316-0.11-0.636-0.146-0.966c-0.032-0.277-0.051-0.553-0.067-0.824
	c-1.711,0.279-3.417,0.599-5.115,0.965c0.059,0.188,0.122,0.374,0.175,0.565C79.071,3.226,79.154,3.621,79.227,4.014z
	 M50.409,15.235c1.44-0.845,2.896-1.647,4.366-2.413c-0.235-0.404-0.461-0.823-0.663-1.267c-0.053-0.117-0.096-0.233-0.145-0.351
	c-1.505,0.782-2.996,1.604-4.468,2.468c0.023,0.034,0.047,0.065,0.069,0.098C49.887,14.253,50.166,14.745,50.409,15.235z
	 M64.354,8.483c1.55-0.605,3.113-1.167,4.686-1.691c-0.136-0.365-0.263-0.738-0.372-1.127c-0.053-0.201-0.098-0.402-0.146-0.604
	c-1.628,0.54-3.246,1.124-4.851,1.75c0.053,0.11,0.111,0.218,0.162,0.332C64.037,7.589,64.206,8.037,64.354,8.483z M41.674,21.002
	c-0.356-0.418-0.698-0.872-1.017-1.352c-0.021-0.034-0.039-0.069-0.061-0.101c-1.349,0.997-2.678,2.035-3.988,3.109
	c0.415,0.462,0.784,0.942,1.114,1.427C39.02,23.02,40.338,21.992,41.674,21.002z M10.046,60.577
	c0.685-1.566,1.415-3.117,2.187-4.651c-0.555-0.195-1.113-0.428-1.666-0.713c-0.745,1.488-1.45,2.992-2.117,4.51
	C9.018,59.977,9.548,60.266,10.046,60.577z M125.58,5.161c1.607,0.432,3.206,0.907,4.794,1.42c0.047-0.137,0.089-0.274,0.14-0.41
	c0.162-0.432,0.347-0.844,0.544-1.241c-1.705-0.554-3.421-1.068-5.146-1.53c-0.046,0.373-0.102,0.747-0.179,1.125
	C125.688,4.741,125.636,4.952,125.58,5.161z M154.03,17.937c1.393,0.915,2.766,1.872,4.12,2.865c0.05-0.063,0.093-0.128,0.143-0.19
	c0.326-0.409,0.669-0.786,1.023-1.138c-1.465-1.081-2.95-2.12-4.46-3.111c-0.179,0.405-0.375,0.807-0.604,1.207
	C154.183,17.696,154.106,17.813,154.03,17.937z M21.727,162.231c0.504-0.347,1.017-0.643,1.529-0.899
	c-1.138-1.423-2.232-2.87-3.278-4.337c-0.383,0.432-0.802,0.851-1.27,1.248C19.676,159.591,20.684,160.922,21.727,162.231z
	 M3.928,120.463c-0.37-1.748-0.692-3.506-0.965-5.268c-0.546,0.198-1.121,0.373-1.727,0.504c0.26,1.642,0.559,3.275,0.902,4.906
	C2.75,120.512,3.349,120.468,3.928,120.463z M32.239,173.54c0.44-0.42,0.896-0.793,1.361-1.123
	c-1.327-1.219-2.626-2.479-3.898-3.786c-0.309,0.482-0.657,0.96-1.053,1.426C29.823,171.251,31.02,172.415,32.239,173.54z
	 M166.379,27.574c1.227,1.126,2.431,2.289,3.61,3.487c0.057-0.051,0.105-0.104,0.16-0.154c0.388-0.354,0.788-0.675,1.196-0.971
	c-1.277-1.303-2.581-2.562-3.912-3.779c-0.246,0.376-0.506,0.748-0.797,1.113C166.554,27.377,166.464,27.473,166.379,27.574z
	 M8.214,135.052c-0.642-1.683-1.23-3.382-1.775-5.089c-0.504,0.289-1.042,0.556-1.617,0.783c0.509,1.581,1.058,3.151,1.649,4.71
	C7.06,135.274,7.642,135.142,8.214,135.052z M177.054,39.041c1.047,1.319,2.055,2.658,3.022,4.013
	c0.059-0.039,0.114-0.083,0.176-0.122c0.438-0.29,0.884-0.542,1.332-0.772c-1.046-1.471-2.139-2.918-3.274-4.346
	c-0.3,0.333-0.617,0.661-0.961,0.976C177.251,38.877,177.152,38.957,177.054,39.041z M140.31,10.406
	c1.521,0.683,3.026,1.404,4.516,2.166c0.052-0.091,0.094-0.183,0.146-0.274c0.249-0.436,0.518-0.846,0.799-1.236
	c-1.606-0.827-3.236-1.606-4.878-2.34c-0.11,0.399-0.233,0.8-0.385,1.204C140.445,10.09,140.375,10.245,140.31,10.406z
	 M14.717,148.784c-0.901-1.573-1.758-3.163-2.564-4.771c-0.448,0.363-0.931,0.71-1.458,1.027c0.748,1.481,1.535,2.95,2.365,4.402
	C13.613,149.177,14.168,148.959,14.717,148.784z"/>
</svg>
