<?xml version="1.0" encoding="utf-8"?>
<!-- Generator: Adobe Illustrator 16.0.0, SVG Export Plug-In . SVG Version: 6.00 Build 0)  -->
<!DOCTYPE svg PUBLIC "-//W3C//DTD SVG 1.1//EN" "http://www.w3.org/Graphics/SVG/1.1/DTD/svg11.dtd">
<svg version="1.1" xmlns="http://www.w3.org/2000/svg" xmlns:xlink="http://www.w3.org/1999/xlink" x="0px" y="0px" width="150px"
	 height="150px" viewBox="0 0 150 150" enable-background="new 0 0 150 150" xml:space="preserve">
<g id="レイヤー_1" display="none">
	<rect y="-2.834" display="inline" fill-rule="evenodd" clip-rule="evenodd" fill="#C2C2C2" width="150" height="152.834"/>
</g>
<g id="Layer_1">
	<path fill-rule="evenodd" clip-rule="evenodd" fill="#FFFFFF" d="M101.494,2.139c5.186,6.295,7.993,14.971,12.365,22.08
		c-0.818-5.62-3.188-11.499-1.766-16.784C123.673,20,125.593,42.221,124.457,67.496c-4.214,12.778-15.014,41.606-0.884,51.224
		c7.708-2.069,1.723,2.531,7.066-0.883c-0.278,5.348,4.69,2.551,7.949,8.832c-12.581-0.511-15.39,8.748-24.729,11.478
		c-22.424,0.456-48.479,5.816-64.473,9.714c0.208-2.438,4.985-0.314,4.417-3.532c-4.747-0.032-8.58-2.852-14.13-2.646
		c-9.881,0.359-21.015,9.229-28.263,0c1.903-1.925,3.558-4.1,4.415-7.063c6.696-5.81,24.186-5.068,29.146-9.72
		c7.019,2.268,4.904-3.147,11.48-1.765c-0.472-7.225-4.647-10.513,0.885-15.014c-2.015,0.251-3.321-0.211-3.533-1.764
		c0.588-8.158,6.077-17.188,6.182-24.733c10.492-8.84,10.297-22.774,13.249-33.558c-1.514-2.906-5.103-3.732-4.418-8.833
		c5.018,0.281,8.903,1.695,13.25,2.65c1.094-4.623-9.494-9.062-7.067-15.015c6.935,0.433,11.304,8.113,15.898,7.946
		c-3.903-5.165-8.757-13.282-7.949-20.31c6.448,1.803,9.739,11.444,14.131,12.364c-3.203-5.428-7.845-13.811-6.182-21.197
		c8.081,1.935,8.672,16.049,14.132,17.663c-2.167-5.888-6.734-13.727-4.415-21.195C100.905,2.139,101.201,2.139,101.494,2.139z"/>
</g>
</svg>
