<?xml version="1.0" encoding="utf-8"?>
<!-- Generator: Adobe Illustrator 16.0.0, SVG Export Plug-In . SVG Version: 6.00 Build 0)  -->
<!DOCTYPE svg PUBLIC "-//W3C//DTD SVG 1.1//EN" "http://www.w3.org/Graphics/SVG/1.1/DTD/svg11.dtd">
<svg version="1.1" xmlns="http://www.w3.org/2000/svg" xmlns:xlink="http://www.w3.org/1999/xlink" x="0px" y="0px" width="150px"
	 height="150px" viewBox="0 0 150 150" enable-background="new 0 0 150 150" xml:space="preserve">
<g id="レイヤー_1" display="none">
	<rect display="inline" fill-rule="evenodd" clip-rule="evenodd" fill="#7E7E7E" width="150" height="150"/>
</g>
<g id="Layer_1">
	<path fill-rule="evenodd" clip-rule="evenodd" fill="#FFFFFF" d="M135.754,148.334c-2.039-5.734-6.83-11.428-6.269-18.031
		c-1.878-0.221-0.911,2.401-2.091,2.874c-1.901-6.809-6.344-13.901-4.443-21.428c-0.896-0.265-2.154,0.432-1.567,0.785
		c-0.079-0.53,0.754,0.053,0.784,0.261c-0.667,0.03-0.916,0.479-1.308,0.783c1.16-0.071,0.401,0.874,0,1.83
		c0.901,0.413,0.46,1.947,0.263,2.875c-0.616-0.082-0.487-0.908-1.308-0.784c-0.713-5.163-0.054-10.179-0.521-15.156
		c0.659-0.585,1.033-2.391-0.263-3.136c-0.929,3.57-0.48,7.224-2.615,8.886c0.465,0.058,1.31-0.266,1.047,0.521
		c-1.219,0.861,0.204,1.175-1.047,1.831c-0.067-0.408-0.573-0.184-0.781,0c-0.471-1.725,0.695-3.165,0.521-4.967
		c-0.07-0.727-0.816-1.452-0.784-2.352c0.016-0.413,0.685-1.098,0.784-1.567c0.525-2.454,0.523-5.988,1.046-8.101
		c0.157-0.641,1.043-2.28,0-2.612c-1.271,1.167-1.015,3.862-2.877,4.441c-1.572-2.146,1.062-5.608,0.786-7.839
		c-1.117,0.264-2.592,0.288-3.659,1.305c-0.783-0.731,1.452-3.755,0.264-4.703c-0.981,1.011-2.819,2.327-4.183,0.785
		c0.53-0.101,1.821-0.765,1.305-1.046c-0.378,0.086-1.752,0.191-2.612,0.522c0.82-1.256-1.16-0.574-1.044-1.829
		c0.553-0.295,0.559-0.3,1.044-1.045c-0.949-0.319-2.062,0.521-2.352,0c-0.349-1.932,0.92-1.324,1.568-2.612
		c-1.237-0.192-1.797,0.293-2.873,0.261c-0.457-0.678-1.183-1.085-1.831-1.567c0.594-0.191,2.039,0.47,1.831-0.523
		c-2.305,0.311-3.693-0.068-4.183-2.09c-0.038,0.583-0.659-0.34-1.308,0c-0.128-0.688-1.438-0.88-0.783-1.568
		c-5.014-2.216-6.753-7.705-11.497-10.192c-0.878-1.91-2.755-3.751-4.704-5.748c-0.605-0.084-1.004,0.042-1.308,0.262
		c-1.543-2.701-5.4,0.017-8.1,1.045c-2.261,0.861-4.437,1.333-6.271,2.09c-2.811,1.161-5.791,4.139-8.885,6.011
		c-5.117,3.096-8.991,4.378-12.805,6.533c2.095-1.912,3.609-4.406,5.228-6.794c-3.441,0.594-6.028,1.935-8.363,2.874
		c8.476-8.489,22.827-15.159,27.438-25.871c-1.812-4.285-5.058-7.137-6.794-11.497c-0.65,0.028-0.809,0.49-1.306,0
		c-1.053-4.522-4.275-6.875-4.964-11.76c-0.822-0.434-1.069,0.973-1.308,0.262c-0.19-0.713,0.52-0.527,0.523-1.045
		c-1.277,0.478-1.671-1.27-1.044-1.83c-0.102-1.502-1.062,1.361-1.569,0.261c0.158-0.975,1.201-1.062,1.307-2.09
		c-1.561,0.295-0.544-0.997-1.046-1.306c-0.18,0.516-0.697,0.696-1.306,0.784c-4.222-2.063-11.62,0.165-16.202-1.829
		c0.9-0.235,1.63-0.636,2.354-1.045c-5.129-1.232-8.309-4.409-13.85-5.227c0.543-0.503,1.787-0.302,2.352-0.785
		c-3.877-0.314-7.827-2.554-11.237-4.181c0.256-1.138,2.554-0.232,3.658-0.521v0.261C27.4,2.736,39.657,3.955,51.09,4.349
		c4.062,0.14,8.052-0.286,11.759,0c4.706,0.363,12.845,2.023,14.374,5.227c0.915,1.923,0.551,4.647,1.044,6.532
		c0.65,2.477,1.77,5.136,3.135,7.057c1.763,2.475,5.846,6.387,8.624,6.793c5.756,0.843,10.536-4.146,16.201-3.92
		c2.506,0.102,4.857,2.562,7.579,3.136c5.004,1.056,10.69-0.652,15.68,2.09c-13.469,0.469-24.642,3.235-30.313,11.499
		c3.774,7.476,8.534,11.86,15.154,16.724c3.011,2.209,7.207,4.329,9.411,7.056c2.993,3.707,4.248,9.455,6.009,14.895
		c1.808,5.592,2.542,11.85,3.136,17.508c1.282,12.23,3.172,23.685,4.18,35.8c0,4.528,0,9.06,0,13.589
		C136.629,148.334,136.191,148.334,135.754,148.334z"/>
</g>
</svg>
