<?xml version="1.0" encoding="utf-8"?>
<!-- Generator: Adobe Illustrator 16.0.0, SVG Export Plug-In . SVG Version: 6.00 Build 0)  -->
<!DOCTYPE svg PUBLIC "-//W3C//DTD SVG 1.1//EN" "http://www.w3.org/Graphics/SVG/1.1/DTD/svg11.dtd">
<svg version="1.1" xmlns="http://www.w3.org/2000/svg" xmlns:xlink="http://www.w3.org/1999/xlink" x="0px" y="0px" width="154px"
	 height="154px" viewBox="0 0 154 154" enable-background="new 0 0 154 154" xml:space="preserve">
<g id="レイヤー_2" display="none">
	<rect display="inline" fill="#F754B9" stroke="#000000" stroke-miterlimit="10" width="154" height="154"/>
</g>
<g id="レイヤー_1">
	<g id="レイヤー_1_1_">
	</g>
	<g id="section1Image">
		<path id="bird2" fill="#FFFFFF" d="M82.708,108.943c0,0,0.251,1.315,0.608,2.299c0.361,0.977-0.578,2.966-1.373,3.57
			c-0.793,0.604-3.844,2.22-4.277,2c-0.434-0.217,0.02-0.588,0.02-0.588s-1.248-0.338-1.5-0.81c-0.24-0.45-0.07-0.685,0.166-0.823
			c0-0.029,0-0.061,0.006-0.097c0.037-0.269,0.418-0.522,0.418-0.522s-0.097,0.416,0.013,0.646c0.062,0.042,0.117,0.086,0.157,0.104
			c0.108,0.051,0.524,0.067,0.958-0.166c0.433-0.238,0.433-2.258,0.433-2.258s-2.89,0.875-7.51,1.346
			c-4.622,0.473-4.55-1.549-6.138-1.01c-1.592,0.539-10.69,4.577-14.013,4.982c-3.321,0.404-3.612,0.671-13.577,3.096
			c-9.965,2.426-22.533,8.689-25.35,9.295c-2.816,0.606-3.251,0-4.116,0.067c-0.866,0.067,0.433-0.675,0.433-0.675
			s-0.576-0.201-1.443-0.402c-0.865-0.204-1.227-0.406,0.795-1.482c2.023-1.076,13.143-6.533,18.921-10.234
			c5.776-3.704,13.791-9.496,19.209-13.873s12.274-11.854,12.274-11.854s-3.321-1.552-4.909-2.965
			c-1.591-1.412-0.216-2.22-0.216-2.22s-4.766-1.347-5.418-2.155c-0.649-0.806,1.373-1.818,1.373-1.818s-2.022-0.402-4.117-0.875
			c-2.094-0.472-1.299-1.347-1.299-1.347s-5.416-0.403-6.428-0.876c-1.011-0.47-0.505-1.412-0.505-1.412s-4.19-0.338-5.346-1.012
			c-1.155-0.673,0.579-1.613,0.579-1.613s-1.444-0.137-5.419-1.347c-3.97-1.215-5.487-2.426-5.487-2.426l1.518-1.011
			c0,0-2.889-0.809-5.922-2.76c-3.035-1.954-3.613-3.167-3.759-3.505c-0.146-0.335,1.086-0.133,1.445-0.065
			c0.362,0.065-0.937-0.539-2.815-2.021c-1.88-1.481-2.602-2.56-2.602-2.56s-0.145-0.404,3.179,0.135
			c3.319,0.539,17.694,3.099,17.694,3.099s-0.359-0.238-1.625-1.146c-1.262-0.91-1.878-1.787-1.984-2.122
			c-0.107-0.336,0.795-0.505,0.795-0.505s-0.832-0.47-2.312-1.514c-1.479-1.046-3.828-3.603-3.863-4.075
			c-0.038-0.472,1.333-0.607,1.333-0.607s-0.864-0.503-2.562-1.313c-1.696-0.809-8.232-5.488-8.594-6.227
			c-0.361-0.741,3.032-0.338,3.032-0.338s-2.237-1.481-4.909-3.163c-2.675-1.682-4.984-4.378-5.201-5.117
			c-0.217-0.739,1.519-0.336,1.519-0.336s-0.504-0.539-2.022-2.222c-1.515-1.685-2.527-4.312-2.527-4.312l2.384,0.605
			c0,0,0.217,0-0.794-1.277c-1.016-1.279-1.156-2.426-1.016-2.761c0.147-0.336,2.895,0.941,2.895,0.941s-0.073-0.334-0.362-1.01
			c-0.288-0.673-0.721-2.83-0.071-2.559c0.65,0.268,31.562,13.737,42.104,19.934C56.13,49.87,77.434,63.878,80.758,66.841
			c0,0,1.906,1.512,3.604,0.839c1.697-0.674,1.74-2.981,4.412-8.436c2.674-5.455,7.949-8.618,14.951-9.36
			c7.004-0.742,11.59,1.11,14.769,0.875c3.18-0.235,27.767-8.148,30.765-8.416c2.998-0.268,4.551-0.169,4.264,0.135
			c-0.289,0.304-18.6,5.25-23.799,7.541c-5.199,2.292-9.46,4.312-11.193,7.139c-1.734,2.829-3.467,7.61-5.057,14.41
			c-1.589,6.804-9.46,17.713-15.238,25.254C92.458,104.365,82.708,108.943,82.708,108.943L82.708,108.943z M80.845,111.132
			c-0.161,0.082-0.558,0.302-0.577,0.554c-0.019,0.254-0.252,1.787-0.343,2.121c-0.09,0.338,0.507-0.084,1.031-0.589
			c0.524-0.504,0.433-1.834,0.433-1.936C81.389,111.282,81.009,111.046,80.845,111.132z"/>
	</g>
</g>
</svg>
