<?xml version="1.0" encoding="utf-8"?>
<!-- Generator: Adobe Illustrator 16.0.0, SVG Export Plug-In . SVG Version: 6.00 Build 0)  -->
<!DOCTYPE svg PUBLIC "-//W3C//DTD SVG 1.1//EN" "http://www.w3.org/Graphics/SVG/1.1/DTD/svg11.dtd">
<svg version="1.1" xmlns="http://www.w3.org/2000/svg" xmlns:xlink="http://www.w3.org/1999/xlink" x="0px" y="0px" width="150px"
	 height="150px" viewBox="0 0 150 150" enable-background="new 0 0 150 150" xml:space="preserve">
<g id="レイヤー_1" display="none">
	<rect x="0" display="inline" fill-rule="evenodd" clip-rule="evenodd" fill="#C2C2C2" width="150" height="150"/>
</g>
<g id="Layer_1">
	<path fill-rule="evenodd" clip-rule="evenodd" fill="#FFFFFF" d="M81.609,32.774c0.407,0,0.815,0,1.223,0
		c2.575,0.454,4.313,1.8,5.876,2.693c3.342,1.912,7.171,2.258,11.505,3.182c0.874,0.187,1.749,0.837,2.692,0.979
		c5.238,0.796,10.658,0.003,14.686-0.733c6.105-1.118,12.263-4.764,16.4,0.489c2.437,0.407,5.071,1.325,7.59,1.959
		c2.489,0.626,5.557,0.63,6.854,2.693c-3.18,0.87-6.806-0.864-10.282-0.735c-1.569,0.058-3.003,0.783-4.651,0.978
		c-5.168,0.616-10.223,0.217-15.42-0.243c-5.893-0.523-10.491,2.008-15.424,1.958c-0.333,1.313,0.47,1.49,0.98,1.958
		c1.529,4.102,4.036,7.224,6.854,10.036c2.318,5.189,5.958,9.055,10.036,12.484c0.83-0.068,1.407-0.391,2.447-0.245
		c-2.479,0.99-5.797,1.01-7.832,0c0.482,2.129,2.562,4.78,4.65,6.118c-5.268,1.893-7.776-2.91-9.546-6.118
		c0.333,4.075,2.963,7.968,4.159,11.994c-5.371,0.539-6.973-4.76-8.321-9.055c-1.395,3.6,2.126,8.861,0.98,12.238
		c-5.706-1.312-5.796-8.24-7.099-13.954c-1.531,3.083-1.048,8.448-1.469,12.238c-0.456,0.034-0.817,0.162-0.98,0.491
		c-2.157-1.757-4.343-3.493-3.915-7.835c-4.911-1.287-6.92-5.484-11.75-6.853c-0.16,1.301-0.895,2.972-0.733,4.896
		c0.088,1.068,0.908,1.641,1.223,2.692c1.782,5.925,1.765,15.266,1.712,22.03c-0.024,3.387-0.998,6.44-2.201,8.812
		c-0.474,0.322-0.986-0.178-1.714,0.245c0.091,2.396-0.951,2.598-1.225,4.896c-1.668-0.045-2.726-0.7-3.182-1.959
		c-1.147,1.463-0.906,4.315-2.446,5.388c-2.299-0.479-2.57-2.981-2.693-5.633c-1.834,1.185-0.727,5.312-2.692,6.365
		c-5.848-1.925-1.486-12.17-0.979-16.891c-1.664-0.133-1.396,1.941-1.714,2.938c-1.149,3.635-2.323,7.624-4.161,10.28
		c-3.908-0.894-2.479-7.733-1.469-9.544c-0.536-0.854-2.1-0.675-2.692-1.471c-0.429-1.609,0.358-4.436-1.713-4.406
		c-0.582-2.029-0.667-4.553-2.449-5.382c0.366-4.051-2.635-5.998-1.713-9.793c-0.379-0.914-1.104-1.104-2.202-0.735
		c-0.57-1.553-2.154-2.091-2.448-3.915c-0.468-0.352-1.064-0.57-1.714-0.735c-0.286-2.326-1.89-3.333-3.427-4.404
		c0-0.492,0-0.982,0-1.472c-2.848-2.047-3.381-6.409-5.874-8.811c-0.003-2.762-1.515-2.22-1.715-5.142
		c-10.807,1.85-19.099,5-31.332,5.63c-0.495-0.545,0.499-1.607-0.734-1.713c1.66-1.522,3.733-2.631,5.14-4.405
		c2.087-0.281,4.785,0.052,6.364-0.735c3.882,1.831,9.167-0.329,13.219-1.225c0.578-0.652,1.913-1.831,1.713-2.447
		c3.352-1.189,8.368-3.275,12.485-5.139c0.583-0.805,1.461-1.313,1.958-2.204C55.841,41.604,65.675,34.141,81.609,32.774z"/>
</g>
</svg>
