<?xml version="1.0" encoding="utf-8"?>
<!-- Generator: Adobe Illustrator 16.0.0, SVG Export Plug-In . SVG Version: 6.00 Build 0)  -->
<!DOCTYPE svg PUBLIC "-//W3C//DTD SVG 1.1//EN" "http://www.w3.org/Graphics/SVG/1.1/DTD/svg11.dtd">
<svg version="1.1" xmlns="http://www.w3.org/2000/svg" xmlns:xlink="http://www.w3.org/1999/xlink" x="0px" y="0px" width="177px"
	 height="177px" viewBox="0 0 177 177" enable-background="new 0 0 177 177" xml:space="preserve">
<g id="レイヤー_2" display="none">
	<rect display="inline" fill="#D3489E" stroke="#000000" stroke-miterlimit="10" width="177" height="177"/>
</g>
<g id="section1Image">
	<path id="bird1" fill="#FFFFFF" d="M69.259,115.475c2.648,0.412,16.263-2.059,16.263-2.059s-8.801,9.879-14.509,13.417
		c-5.708,3.539-33.261,15.229-34.399,16.216c-1.143,0.986,4.811-0.328,4.811-0.328s-21.152,9.428-21.806,9.879
		c-0.653,0.452,0.61,1.03,3.421,0.537c2.813-0.494,20.299-9.099,20.299-9.099s-22.09,12.392-21.928,12.722
		c0.163,0.328,2.201-0.043,2.201-0.043s-1.308,1.069-1.591,1.276c-0.286,0.205,0.407,0.573,2.161,0.286
		c1.751-0.286,22.172-11.729,22.172-11.729L25.036,160.42c-0.446,0.289,0.491,0.619,2.362,0.082
		c1.877-0.535,10.478-5.514,10.723-5.598c0.246-0.081-10.188,7.736-10.923,8.273c-0.735,0.535,1.756,0.285,4.279-0.74
		c2.526-1.03,11.002-7.449,11.002-7.449s-2.36,2.472-2.933,3.13c-0.569,0.655,0.285,0.325,2.771-0.7
		c2.487-1.027,25.639-18.105,26.211-18.521l-1.377,2.021c0,0,0.286,0.081,3.302-0.826c3.017-0.902,4.851-2.715,5.666-3.703
		c0.815-0.984-5.868,8.479-5.545,8.479c0.326,0,5.871-1.729,5.871-1.729s-0.489,1.812-0.735,2.387
		c-0.246,0.576,0.653,0.41,1.957,0.326c1.305-0.082,3.993-0.984,4.646-1.396c0.652-0.411-0.492,4.028-0.246,6.172
		c0.165,1.438,1.4,2.922,2.566,3.733c0.335,0.599,0.737,1.262,1.217,1.99c1.42,2.181,2.149,4.06,2.532,5.362
		c-0.213,0.046-0.42,0.106-0.617,0.192c-0.774,0.328-1.589,1.396-1.304,2.51c0.092,0.355,0.205,0.623,0.316,0.825
		c-0.688,0.006-1.457,0.048-2.11,0.325c-0.773,0.33-1.589,1.401-1.306,2.511c0.286,1.112,0.773,1.358,0.773,1.358
		s-0.593-1.461-0.102-2.037c0.488-0.576,1.528-0.681,1.528-0.681s-0.756,0.863,0.633,1.152c1.385,0.287,3.135-0.782,3.831-0.824
		c0.691-0.039,0.897-0.206,1.185,0.287c0.286,0.496,0.651,3.296,0.875,4.14c0.228,0.844-0.041,1.399-0.308,1.771
		c-0.266,0.37-0.305,0.721-0.243,0.923l0.225,0.764c0,0,0.183,0.492-0.183,0.717c-0.366,0.229-0.938,0.25-1.307-0.018
		c-0.363-0.27-0.466-0.455-0.466-0.455s0,0.598,0.509,1.111c0.508,0.517,1.184,0.576,1.754,0.369
		c0.569-0.207,0.978-1.025,1.082-1.151c0.101-0.122,0.732-0.739,0.771-1.356c0.04-0.617,0-0.967-0.021-1.067
		c-0.002-0.013-0.006-0.05-0.01-0.115c0.413,0.188,0.869,0.181,1.271,0.035c0.571-0.207,0.979-1.029,1.083-1.153
		c0.103-0.121,0.734-0.74,0.773-1.355c0.037-0.617,0-0.969-0.022-1.069c-0.019-0.104-0.246-3.622-0.081-5.679
		c0.16-2.016-0.465-3.178-1.545-4.859c-0.575-0.898-2.176-3.934-3.518-6.705c0.282-0.955,0.342-2.309,0.18-3.585
		c-0.18-1.405-0.014-3.327,0.346-5.216c1.271-1.632,2.854-3.316,4.689-5.587c2.936-3.619,7.254-4.938,15.568-10.124
		c8.314-5.184,5.706-4.607,10.434-6.172c4.729-1.564,10.52-5.762,12.639-6.832c2.12-1.07,4.975-1.852,7.277-1.771
		c2.303,0.084,9.781,1.274,12.229,1.523c2.443,0.247,3.749,0,4.461,0.265c0.714,0.271,2.325,1.153,2.325,1.153
		s-0.55-2.141-2.548-4.074c-1.999-1.933-5.463-3.374-6.85-4.031c-1.39-0.658-4.646-2.553-6.766-4.691
		c-2.12-2.141-5.139-4.689-11.007-5.762c-5.87-1.069-11.007,0-12.882,0.74c-1.875,0.741-3.993-0.41-3.993-0.41
		s2.61-13.5-0.163-23.046c-2.771-9.548-5.869-10.698-13.371-21.4c-7.499-10.7-11.898-23.127-12.229-23.705
		c-0.326-0.576-0.321,0.906,0.653,5.926c0.978,5.021,2.2,6.174,2.935,7.409c0.733,1.233-1.303-1.152-4.074-5.434
		C88.936,33.074,77.442,8.791,77.358,8.38c-0.081-0.409-0.733,2.552,1.141,9.301c1.878,6.75,6.035,14.569,6.359,15.146
		c0.325,0.576-2.038-1.979-5.462-7.243C75.972,20.317,67.248,0.233,67.248,0.233s-1.955,3.54,0.165,12.016
		c2.117,8.477,9.619,19.838,10.189,20.495c0.569,0.659-6.603-4.691-10.761-10.041c-4.157-5.351-9.865-13.664-9.865-13.664
		s-0.323,3.293,2.609,9.465c2.936,6.175,7.744,13.251,8.072,13.911c0.324,0.659-10.518-7.901-10.518-7.901l-6.604-5.432
		c0,0-0.165,0.986,1.061,4.609c1.222,3.62,2.607,6.665,2.607,6.665s-0.816,0.659-0.732,3.952c0.08,3.292,2.119,5.763,2.119,5.763
		l-1.713-0.907c0,0-0.165,0.41,0.163,2.798c0.324,2.386,2.28,7.574,2.28,7.574s-2.691-3.128-2.28-2.637
		c0.405,0.495-5.626-5.926-10.105-14.651c-4.488-8.727-2.042-7.9-3.1-8.477c-1.06-0.576-1.795,5.762,0.978,11.523
		c2.771,5.763,14.347,21.071,14.347,21.071s-1.713-2.14-8.23-8.644c-6.522-6.502-21.031-27.242-21.604-27.736
		c-0.57-0.494-1.14,6.418,3.098,13.91c4.239,7.491,14.347,17.122,14.347,17.122L15.078,29.863c0,0-0.486,0.328,0.979,3.045
		c1.469,2.718,5.381,5.556,5.381,5.556s-1.507,1.771,1.061,5.062C25.062,46.82,33.46,55.503,33.46,55.503s-6.032-2.51-6.604-2.427
		c-0.57,0.081,0.165,2.59,3.14,5.308c2.977,2.717,6.972,4.448,6.972,4.448s0.406,2.22,2.566,4.156
		c2.161,1.937,5.829,4.445,5.829,4.445l-2.688-0.163c0,0-0.167,0.41,0.812,2.056c0.978,1.646,4.158,3.951,4.158,3.951l-3.017,0.164
		c0,0,0.081,1.564,1.795,3.621c1.709,2.061,6.275,4.2,6.275,4.2l-1.957,0.409c0,0,0.082,0.412,1.55,2.306
		c1.467,1.893,3.665,2.96,3.665,2.96s0,0.576,0.653,1.979c0.652,1.397,2.12,3.128,2.12,3.128s-1.225,0.492-1.629,0.41
		c-0.411-0.083-0.084,0.33,1.141,3.375c1.222,3.044,3.502,4.812,3.502,4.812l-2.279,0.125c0,0-0.121,0.164,0.489,1.729
		c0.61,1.562,3.055,3.128,2.769,3.251c-0.282,0.123,0,0.698,0.857,1.604c0.854,0.905,3.303,1.439,3.303,1.439
		s-1.223,1.193-1.509,1.4C65.103,114.404,66.61,115.062,69.259,115.475L69.259,115.475z M89.203,153.076
		c2.146,3.434,2.568,6.059,2.688,6.73c0.066,0.385-0.197,0.881-0.576,1.248c-1.125-1.729-2.837-4.396-4.028-6.504
		c0.556-0.384,1.097-0.966,1.417-1.539C88.868,153.029,89.037,153.052,89.203,153.076L89.203,153.076z M88.719,163.991
		c-0.242,0.612-0.964,1.251-1.56,1.251h-0.091c-0.126-0.479-0.229-1.154,0.071-1.501c0.486-0.577,1.526-0.685,1.526-0.685
		S88.179,163.622,88.719,163.991L88.719,163.991z M93.846,172.15c-0.06-1.205-0.136-3.325-0.021-4.748
		c0.128-1.633-0.259-2.711-0.988-3.959c0.113-0.028,0.214-0.051,0.295-0.053c0.693-0.041,0.897-0.205,1.187,0.289
		c0.283,0.491,0.652,3.293,0.877,4.135c0.224,0.845-0.043,1.399-0.309,1.771c-0.266,0.37-0.305,0.719-0.244,0.924l0.228,0.764
		c0,0,0.182,0.494-0.185,0.722C94.45,172.134,94.137,172.193,93.846,172.15z"/>
</g>
</svg>
