<?xml version="1.0" encoding="utf-8"?>
<!-- Generator: Adobe Illustrator 16.0.0, SVG Export Plug-In . SVG Version: 6.00 Build 0)  -->
<!DOCTYPE svg PUBLIC "-//W3C//DTD SVG 1.1//EN" "http://www.w3.org/Graphics/SVG/1.1/DTD/svg11.dtd">
<svg version="1.1" id="Capa_1" xmlns="http://www.w3.org/2000/svg" xmlns:xlink="http://www.w3.org/1999/xlink" x="0px" y="0px"
	 width="20px" height="20px" viewBox="0 0 20 20" enable-background="new 0 0 20 20" xml:space="preserve">
<path id="deleteIcon" fill="#FFFFFF" d="M19.325,3.942l-6.06,6.061l6.06,6.06c0.901,0.902,0.901,2.363,0,3.264
	c-0.451,0.451-1.041,0.676-1.631,0.676c-0.591,0-1.182-0.225-1.632-0.676L10,13.266L3.94,19.327
	c-0.451,0.451-1.041,0.676-1.632,0.676c-0.59,0-1.181-0.225-1.631-0.676c-0.901-0.901-0.901-2.362,0-3.264l6.06-6.06l-6.06-6.061
	c-0.901-0.901-0.901-2.362,0-3.264c0.901-0.901,2.362-0.901,3.263,0L10,6.739l6.061-6.061c0.902-0.901,2.362-0.901,3.263,0
	C20.226,1.58,20.226,3.041,19.325,3.942z"/>
</svg>
