<?xml version="1.0" encoding="utf-8"?>
<!-- Generator: Adobe Illustrator 16.0.0, SVG Export Plug-In . SVG Version: 6.00 Build 0)  -->
<!DOCTYPE svg PUBLIC "-//W3C//DTD SVG 1.1//EN" "http://www.w3.org/Graphics/SVG/1.1/DTD/svg11.dtd">
<svg version="1.1" id="main" xmlns="http://www.w3.org/2000/svg" xmlns:xlink="http://www.w3.org/1999/xlink" x="0px" y="0px"
	 width="355px" height="60px" viewBox="0 0 355 60" enable-background="new 0 0 355 60" xml:space="preserve">
<g>
	<g>
		<path fill="#82C372" d="M1.18,5.25h7.462v48.094h12.197v6.188H1.18V5.25z"/>
		<path fill="#82C372" d="M36.52,47.262h6.385c-0.502,8.555-4.09,12.832-10.762,12.832c-1.986,0-3.689-0.363-5.113-1.09
			c-1.422-0.727-2.6-1.852-3.534-3.375c-0.932-1.523-1.62-3.457-2.062-5.801s-0.664-5.133-0.664-8.367
			c0-6.422,0.916-11.18,2.745-14.273s4.658-4.641,8.484-4.641c7.438,0,11.156,6.422,11.156,19.266v0.844H27.479
			c0,7.781,1.578,11.672,4.734,11.672C35.084,54.328,36.52,51.973,36.52,47.262z M36.16,37.805c-0.287-3.82-0.73-6.328-1.328-7.523
			c-0.621-1.336-1.627-2.004-3.014-2.004c-1.41,0-2.416,0.668-3.012,2.004c-0.6,1.195-1.041,3.703-1.328,7.523H36.16z"/>
		<path fill="#82C372" d="M47.141,12.949h6.852v10.195h3.73v5.344h-3.73v31.043h-6.852V28.488h-3.768v-5.344h3.768V12.949z"/>
		<path fill="#82C372" d="M64.076,3.527l5.955,1.723l-7.104,19.125L59.16,23.32L64.076,3.527z"/>
		<path fill="#82C372" d="M88.887,23.883v6.293c-1.674-1.219-3.432-1.828-5.273-1.828c-0.623,0-1.197,0.105-1.723,0.316
			s-0.986,0.498-1.381,0.861s-0.705,0.797-0.934,1.301c-0.227,0.504-0.34,1.037-0.34,1.6c0,1.734,1.602,3.797,4.807,6.188
			c1.291,0.984,2.367,1.898,3.229,2.742s1.52,1.641,1.973,2.391c0.934,1.477,1.4,3.34,1.4,5.59c0,3.258-0.969,5.871-2.906,7.84
			c-1.914,1.945-4.484,2.918-7.713,2.918c-1.986,0-3.994-0.574-6.027-1.723v-6.504c1.986,1.453,3.863,2.18,5.633,2.18
			c3.133,0,4.699-1.512,4.699-4.535c0-1.125-0.287-2.098-0.861-2.918c-0.264-0.398-0.682-0.861-1.256-1.389
			c-0.572-0.527-1.279-1.119-2.115-1.775c-2.895-2.203-4.855-4.055-5.885-5.555c-1.004-1.547-1.506-3.41-1.506-5.59
			c0-2.93,0.92-5.332,2.762-7.207c1.865-1.852,4.293-2.777,7.283-2.777C84.855,22.301,86.9,22.828,88.887,23.883z"/>
		<path fill="#82C372" d="M119.133,30.984h13.561v2.109c0,10.57-0.945,17.707-2.834,21.41c-1.865,3.797-5.357,5.695-10.475,5.695
			c-5.285,0-9.053-2.109-11.301-6.328c-2.225-4.219-3.336-11.309-3.336-21.27c0-11.391,1.219-18.972,3.658-22.746
			c2.297-3.539,5.824-5.309,10.584-5.309c3.635,0,6.469,0.856,8.502,2.566c2.057,1.735,3.658,4.583,4.807,8.543l-6.959,2.848
			c-0.311-1.429-0.658-2.631-1.041-3.604c-0.383-0.972-0.801-1.728-1.256-2.268c-0.908-1.102-2.271-1.652-4.09-1.652
			c-2.486,0-4.186,1.5-5.094,4.5c-0.908,3.141-1.363,8.777-1.363,16.91c0,8.227,0.467,13.793,1.4,16.699
			c0.932,2.906,2.689,4.359,5.273,4.359c2.367,0,4.029-1.031,4.986-3.094c0.98-2.203,1.471-5.742,1.471-10.617v-1.477v-1.09h-6.494
			V30.984z"/>
		<path fill="#82C372" d="M151.137,47.262h6.385c-0.502,8.555-4.09,12.832-10.762,12.832c-1.986,0-3.689-0.363-5.113-1.09
			c-1.422-0.727-2.6-1.852-3.533-3.375c-0.932-1.523-1.621-3.457-2.062-5.801c-0.443-2.344-0.664-5.133-0.664-8.367
			c0-6.422,0.916-11.18,2.744-14.273c1.83-3.094,4.658-4.641,8.484-4.641c7.438,0,11.156,6.422,11.156,19.266v0.844h-15.676
			c0,7.781,1.578,11.672,4.734,11.672C149.701,54.328,151.137,51.973,151.137,47.262z M150.777,37.805
			c-0.287-3.82-0.73-6.328-1.328-7.523c-0.621-1.336-1.627-2.004-3.014-2.004c-1.41,0-2.416,0.668-3.012,2.004
			c-0.6,1.195-1.041,3.703-1.328,7.523H150.777z"/>
		<path fill="#82C372" d="M161.758,12.949h6.852v10.195h3.73v5.344h-3.73v31.043h-6.852V28.488h-3.768v-5.344h3.768V12.949z"/>
		<path fill="#82C372" d="M205.459,6.375v7.137c-2.273-1.594-4.318-2.391-6.137-2.391c-1.961,0-3.562,0.68-4.807,2.039
			c-1.244,1.289-1.865,3.012-1.865,5.168c0,1.898,0.443,3.528,1.328,4.887c0.453,0.727,1.201,1.664,2.242,2.812
			c1.039,1.148,2.385,2.531,4.035,4.148c3.037,3.023,5.107,5.637,6.207,7.84c1.1,2.133,1.65,4.746,1.65,7.84
			c0,4.195-1.209,7.652-3.623,10.371c-2.416,2.648-5.514,3.973-9.293,3.973c-3.18,0-5.895-0.855-8.143-2.566v-7.242
			c2.654,1.898,5.07,2.848,7.246,2.848c2.033,0,3.623-0.662,4.771-1.986s1.723-3.123,1.723-5.396c0-1.969-0.443-3.738-1.328-5.309
			c-0.455-0.75-1.088-1.611-1.902-2.584c-0.812-0.973-1.828-2.057-3.049-3.252c-1.889-1.828-3.455-3.445-4.699-4.852
			s-2.164-2.637-2.762-3.691c-1.148-2.062-1.723-4.664-1.723-7.805c0-4.242,1.125-7.605,3.373-10.09
			c2.271-2.508,5.32-3.762,9.146-3.762C200.508,4.512,203.043,5.133,205.459,6.375z"/>
		<path fill="#82C372" d="M211.881,12.949h6.854v10.195h3.73v5.344h-3.73v31.043h-6.854V28.488h-3.766v-5.344h3.766V12.949z"/>
		<path fill="#82C372" d="M245.643,23.145v36.387h-6.854v-4.676c-0.98,1.992-1.961,3.363-2.941,4.113s-2.271,1.125-3.873,1.125
			c-3.086,0-5.346-1.547-6.781-4.641s-2.152-7.945-2.152-14.555c0-6.305,0.717-10.939,2.152-13.904s3.695-4.447,6.781-4.447
			c2.82,0,5.094,1.57,6.814,4.711v-4.113H245.643z M230.145,41.18c0,4.781,0.322,8.121,0.969,10.02
			c0.668,1.898,1.842,2.848,3.516,2.848c1.529,0,2.643-0.984,3.336-2.953c0.693-2.109,1.041-5.355,1.041-9.738
			c0-4.406-0.348-7.664-1.041-9.773c-0.693-1.969-1.807-2.953-3.336-2.953c-1.627,0-2.787,0.938-3.48,2.812
			C230.479,33.176,230.145,36.422,230.145,41.18z"/>
		<path fill="#82C372" d="M250.488,23.145h6.852v4.535c1.172-1.922,2.332-3.27,3.48-4.043c1.146-0.773,2.666-1.219,4.555-1.336
			v7.031c-0.479-0.07-0.885-0.105-1.219-0.105c-2.463,0-4.221,0.621-5.273,1.863c-1.029,1.219-1.543,3.352-1.543,6.398v22.043
			h-6.852V23.145z"/>
		<path fill="#82C372" d="M267.996,12.949h6.854v10.195h3.73v5.344h-3.73v31.043h-6.854V28.488h-3.766v-5.344h3.766V12.949z"/>
		<path fill="#82C372" d="M294.904,47.262h6.387c-0.502,8.555-4.09,12.832-10.762,12.832c-1.986,0-3.689-0.363-5.113-1.09
			c-1.422-0.727-2.6-1.852-3.533-3.375s-1.621-3.457-2.062-5.801c-0.443-2.344-0.664-5.133-0.664-8.367
			c0-6.422,0.914-11.18,2.744-14.273s4.658-4.641,8.484-4.641c7.438,0,11.156,6.422,11.156,19.266v0.844h-15.676
			c0,7.781,1.578,11.672,4.734,11.672C293.471,54.328,294.904,51.973,294.904,47.262z M294.547,37.805
			c-0.287-3.82-0.73-6.328-1.328-7.523c-0.621-1.336-1.627-2.004-3.014-2.004c-1.41,0-2.416,0.668-3.014,2.004
			c-0.598,1.195-1.039,3.703-1.326,7.523H294.547z"/>
		<path fill="#82C372" d="M325.904-0.199v59.73h-6.854v-4.676c-0.98,1.992-1.961,3.363-2.941,4.113s-2.283,1.125-3.91,1.125
			c-3.061,0-5.309-1.541-6.744-4.623s-2.152-7.928-2.152-14.537c0-3.188,0.18-5.941,0.539-8.262c0.357-2.32,0.902-4.23,1.631-5.73
			c0.73-1.5,1.668-2.607,2.816-3.322s2.512-1.072,4.09-1.072c1.506,0,2.75,0.352,3.73,1.055c0.479,0.328,0.969,0.797,1.471,1.406
			s0.992,1.359,1.471,2.25V-0.199H325.904z M310.406,41.18c0,4.781,0.322,8.121,0.969,10.02c0.668,1.898,1.842,2.848,3.516,2.848
			c1.529,0,2.643-0.984,3.336-2.953c0.693-2.109,1.041-5.355,1.041-9.738c0-4.406-0.348-7.664-1.041-9.773
			c-0.693-1.969-1.807-2.953-3.336-2.953c-1.627,0-2.787,0.938-3.48,2.812C310.74,33.176,310.406,36.422,310.406,41.18z"/>
		<path fill="#82C372" d="M349.443,51.41c1.195,0,2.223,0.422,3.084,1.266s1.293,1.863,1.293,3.059s-0.432,2.215-1.293,3.059
			c-0.908,0.82-1.961,1.23-3.156,1.23c-1.172,0-2.213-0.41-3.121-1.23c-0.861-0.844-1.291-1.875-1.291-3.094
			c0-1.195,0.43-2.203,1.291-3.023C347.135,51.832,348.199,51.41,349.443,51.41z M345.783,5.25h7.246v41.238h-7.246V5.25z"/>
	</g>
</g>
</svg>
