<?xml version="1.0" encoding="utf-8"?>
<!-- Generator: Adobe Illustrator 16.0.0, SVG Export Plug-In . SVG Version: 6.00 Build 0)  -->
<!DOCTYPE svg PUBLIC "-//W3C//DTD SVG 1.1//EN" "http://www.w3.org/Graphics/SVG/1.1/DTD/svg11.dtd">
<svg version="1.1" id="Capa_1" xmlns="http://www.w3.org/2000/svg" xmlns:xlink="http://www.w3.org/1999/xlink" x="0px" y="0px"
	 width="512px" height="512px" viewBox="0 0 512 512" enable-background="new 0 0 512 512" xml:space="preserve">
<g>
	<g>
		<path fill="#FFFFFF" d="M472.072,35.039H39.928C17.913,35.039,0,52.952,0,74.967v302.223c0,22.016,17.913,39.928,39.928,39.928
			h200.988v29.675h-52.827v30.167h135.82v-30.167h-52.825v-29.675h200.988c22.016,0,39.928-17.912,39.928-39.928V74.967
			C512,52.95,494.088,35.039,472.072,35.039z M39.928,65.207h432.145c5.382,0,9.76,4.378,9.76,9.76v240.504H30.168V74.967
			C30.168,69.583,34.545,65.207,39.928,65.207z M472.072,386.947H39.928c-5.382,0-9.76-4.377-9.76-9.76v-31.549h451.664v31.549
			C481.832,382.57,477.454,386.947,472.072,386.947z"/>
	</g>
</g>
</svg>
