<?xml version="1.0" encoding="utf-8"?>
<!-- Generator: Adobe Illustrator 16.0.0, SVG Export Plug-In . SVG Version: 6.00 Build 0)  -->
<!DOCTYPE svg PUBLIC "-//W3C//DTD SVG 1.1//EN" "http://www.w3.org/Graphics/SVG/1.1/DTD/svg11.dtd">
<svg version="1.1" id="section1Image" xmlns="http://www.w3.org/2000/svg" xmlns:xlink="http://www.w3.org/1999/xlink" x="0px"
	 y="0px" width="500px" height="500px" viewBox="0 0 500 500" enable-background="new 0 0 500 500" xml:space="preserve">
<g>
	<path id="_x33_D" fill="#FFFFFF" d="M239.163,117.021c0,24.676-19.303,41.255-48.036,41.255c-15.061,0-27.245-4.57-33.621-8.831
		l-3.816-2.551l8.047-33.024l6.63,4.079c3.476,2.147,12.334,6.193,21.022,6.193c3.025,0,12.909-0.614,12.909-8.514
		c0-9.636-13.299-9.919-14.817-9.919h-15.74V73.502h15.411c4.753,0,12.282-1.787,12.282-6.589c0-4.664-5.805-5.364-9.271-5.364
		c-7.088,0-14.808,3.511-18.271,5.865l-6.675,4.544l-8.224-32.298l3.702-2.625c6.253-4.432,19.171-9.616,35.015-9.616
		c27.452,0,39.958,18.105,39.958,34.938c0,10.481-3.898,19.371-11.015,25.677C233.661,94.256,239.163,104.755,239.163,117.021z
		 M353.139,87.933c0,28.204-10.674,44.287-19.635,52.81c-12.009,11.024-30.395,16.83-53.253,16.83
		c-13.292,0-22.667-0.988-28.189-1.818l-5.125-0.76V27.859l4.987-0.891c9.813-1.742,21.688-2.711,33.397-2.711
		c21.179,0,35.804,4.296,47.406,13.931C346.077,49.167,353.145,66.365,353.139,87.933z M315.805,88.807
		c0-20.235-9.663-30.932-27.954-30.932c-1.979,0-3.632,0.08-4.998,0.193v65.529c0.875,0.01,1.729,0.01,2.469,0.01h0.009
		c9.975,0,17.371-2.791,22.417-8.283C313.089,109.504,315.805,100.579,315.805,88.807z"/>
	<path id="bird2" fill="#FFFFFF" d="M81.371,269.576c0,0-9.75-4.579-15.526-12.122c-5.779-7.541-13.65-18.45-15.239-25.254
		c-1.589-6.8-3.322-11.581-5.056-14.41c-1.734-2.827-5.995-4.847-11.194-7.139c-5.199-2.291-23.509-7.237-23.798-7.541
		c-0.288-0.304,1.265-0.403,4.263-0.135c2.998,0.268,27.585,8.181,30.765,8.416c3.179,0.235,7.764-1.617,14.769-0.875
		c7.002,0.742,12.277,3.905,14.95,9.36c2.672,5.455,2.715,7.762,4.413,8.436c1.697,0.673,3.603-0.839,3.603-0.839
		c3.324-2.963,24.627-16.971,35.171-23.164c10.542-6.197,41.453-19.666,42.104-19.934c0.649-0.271,0.217,1.886-0.072,2.559
		c-0.29,0.676-0.363,1.01-0.363,1.01s2.747-1.277,2.893-0.941c0.141,0.335,0,1.482-1.014,2.761c-1.01,1.277-0.794,1.277-0.794,1.277
		l2.383-0.605c0,0-1.012,2.627-2.527,4.312c-1.518,1.683-2.023,2.222-2.023,2.222s1.735-0.403,1.519,0.336
		c-0.218,0.739-2.528,3.435-5.201,5.117s-4.911,3.163-4.911,3.163s3.393-0.403,3.033,0.338c-0.362,0.739-6.898,5.418-8.593,6.227
		c-1.697,0.81-2.562,1.313-2.562,1.313s1.371,0.135,1.333,0.607c-0.036,0.472-2.384,3.029-3.864,4.075
		c-1.48,1.044-2.311,1.514-2.311,1.514s0.901,0.169,0.794,0.505c-0.107,0.335-0.722,1.212-1.985,2.122
		c-1.265,0.908-1.625,1.146-1.625,1.146s14.375-2.56,17.694-3.099c3.324-0.539,3.179-0.135,3.179-0.135s-0.722,1.079-2.601,2.56
		c-1.878,1.482-3.177,2.086-2.816,2.021c0.36-0.068,1.59-0.27,1.445,0.065c-0.145,0.338-0.722,1.551-3.757,3.505
		c-3.034,1.951-5.922,2.76-5.922,2.76l1.517,1.011c0,0-1.517,1.211-5.488,2.426c-3.974,1.21-5.419,1.347-5.419,1.347
		s1.735,0.94,0.579,1.613c-1.156,0.674-5.345,1.012-5.345,1.012s0.506,0.942-0.505,1.412c-1.011,0.472-6.427,0.876-6.427,0.876
		s0.794,0.875-1.299,1.346c-2.094,0.472-4.117,0.876-4.117,0.876s2.023,1.011,1.372,1.818c-0.651,0.809-5.417,2.155-5.417,2.155
		s1.374,0.808-0.216,2.22c-1.588,1.413-4.91,2.964-4.91,2.964s6.858,7.476,12.276,11.854s13.432,10.169,19.209,13.873
		c5.778,3.702,16.898,9.16,18.92,10.235c2.021,1.077,1.661,1.279,0.795,1.483c-0.867,0.201-1.444,0.403-1.444,0.403
		s1.299,0.742,0.433,0.674c-0.866-0.067-1.299,0.539-4.117-0.067c-2.816-0.606-15.384-6.87-25.349-9.295
		c-9.965-2.425-10.255-2.692-13.577-3.096c-3.323-0.404-12.42-4.444-14.012-4.983c-1.588-0.539-1.516,1.483-6.138,1.01
		c-4.621-0.471-7.509-1.346-7.509-1.346s0,2.02,0.433,2.258c0.434,0.234,0.85,0.218,0.958,0.166c0.04-0.017,0.095-0.061,0.157-0.104
		c0.11-0.231,0.013-0.646,0.013-0.646s0.382,0.255,0.418,0.523c0.007,0.036,0.007,0.068,0.007,0.097
		c0.236,0.138,0.405,0.372,0.165,0.823c-0.251,0.471-1.499,0.81-1.499,0.81s0.453,0.371,0.019,0.588
		c-0.434,0.218-3.484-1.396-4.278-2.001c-0.794-0.605-1.734-2.593-1.372-3.571C81.12,270.89,81.371,269.576,81.371,269.576
		L81.371,269.576z M82.69,271.914c0,0.102-0.091,1.431,0.433,1.936c0.524,0.504,1.121,0.926,1.031,0.588
		c-0.091-0.335-0.324-1.868-0.342-2.121c-0.02-0.253-0.416-0.471-0.578-0.554C83.07,271.678,82.69,271.914,82.69,271.914z"/>
	<path id="bird1" fill="#FFFFFF" d="M396.731,243.806c2.649,0.412,16.263-2.059,16.263-2.059s-8.801,9.879-14.509,13.417
		c-5.708,3.539-33.26,15.228-34.399,16.216c-1.143,0.986,4.81-0.329,4.81-0.329s-21.152,9.427-21.805,9.879
		c-0.653,0.453,0.61,1.031,3.421,0.537c2.813-0.495,20.299-9.098,20.299-9.098s-22.09,12.391-21.928,12.722
		c0.163,0.328,2.201-0.043,2.201-0.043s-1.308,1.069-1.591,1.276c-0.286,0.206,0.407,0.574,2.161,0.287
		c1.751-0.287,22.172-11.728,22.172-11.728l-21.317,13.868c-0.447,0.289,0.491,0.619,2.362,0.082
		c1.877-0.535,10.478-5.512,10.723-5.597c0.246-0.082-10.188,7.737-10.923,8.274c-0.735,0.535,1.756,0.285,4.279-0.741
		c2.527-1.031,11.002-7.448,11.002-7.448s-2.36,2.47-2.932,3.128c-0.57,0.657,0.285,0.326,2.771-0.7
		c2.487-1.029,25.639-18.107,26.211-18.522l-1.377,2.022c0,0,0.286,0.081,3.302-0.826c3.016-0.904,4.85-2.715,5.666-3.704
		c0.815-0.985-5.868,8.479-5.545,8.479c0.326,0,5.871-1.728,5.871-1.728s-0.489,1.811-0.735,2.387s0.653,0.411,1.957,0.326
		c1.304-0.081,3.993-0.985,4.646-1.396c0.652-0.411-0.492,4.03-0.246,6.172c0.165,1.44,1.4,2.922,2.566,3.734
		c0.335,0.598,0.738,1.261,1.217,1.991c1.42,2.179,2.15,4.058,2.532,5.362c-0.212,0.046-0.419,0.107-0.617,0.192
		c-0.774,0.328-1.589,1.398-1.303,2.51c0.091,0.356,0.205,0.623,0.316,0.825c-0.688,0.006-1.457,0.048-2.11,0.326
		c-0.774,0.33-1.589,1.402-1.306,2.51c0.286,1.113,0.773,1.359,0.773,1.359s-0.592-1.461-0.101-2.037
		c0.488-0.576,1.528-0.68,1.528-0.68s-0.756,0.863,0.633,1.152c1.385,0.287,3.135-0.782,3.831-0.824
		c0.691-0.039,0.897-0.206,1.184,0.287c0.286,0.496,0.652,3.296,0.875,4.138c0.226,0.844-0.041,1.401-0.307,1.771
		c-0.266,0.371-0.305,0.721-0.244,0.923l0.224,0.763c0,0,0.182,0.493-0.182,0.718c-0.366,0.228-0.938,0.249-1.306-0.018
		c-0.363-0.269-0.466-0.455-0.466-0.455s0,0.598,0.508,1.111c0.509,0.517,1.184,0.577,1.755,0.37
		c0.569-0.207,0.977-1.026,1.081-1.152c0.101-0.122,0.733-0.74,0.772-1.357c0.04-0.616,0-0.967-0.022-1.068
		c-0.002-0.011-0.005-0.048-0.01-0.115c0.414,0.189,0.87,0.18,1.272,0.035c0.571-0.207,0.979-1.029,1.083-1.153
		c0.102-0.123,0.734-0.741,0.774-1.356c0.037-0.618,0-0.97-0.023-1.07c-0.019-0.105-0.246-3.622-0.081-5.679
		c0.16-2.015-0.465-3.177-1.545-4.859c-0.575-0.898-2.176-3.934-3.517-6.705c0.282-0.955,0.342-2.309,0.179-3.585
		c-0.179-1.405-0.014-3.327,0.346-5.216c1.27-1.632,2.852-3.317,4.69-5.587c2.935-3.619,7.254-4.938,15.568-10.124
		c8.315-5.184,5.707-4.607,10.434-6.172c4.729-1.564,10.519-5.761,12.638-6.832c2.12-1.07,4.973-1.85,7.277-1.77
		c2.303,0.083,9.782,1.274,12.229,1.523c2.444,0.247,3.749,0,4.461,0.265c0.713,0.27,2.325,1.153,2.325,1.153
		s-0.549-2.14-2.548-4.074c-1.999-1.934-5.462-3.374-6.849-4.032c-1.389-0.657-4.646-2.552-6.765-4.692
		c-2.12-2.14-5.138-4.689-11.007-5.761c-5.87-1.07-11.007,0-12.882,0.741c-1.874,0.741-3.993-0.411-3.993-0.411
		s2.61-13.499-0.163-23.047c-2.771-9.548-5.869-10.698-13.371-21.4c-7.499-10.7-11.9-23.127-12.228-23.705
		c-0.326-0.576-0.322,0.906,0.653,5.926c0.978,5.021,2.201,6.174,2.935,7.409c0.733,1.233-1.304-1.152-4.075-5.434
		c-2.771-4.278-14.264-28.561-14.348-28.972c-0.081-0.409-0.733,2.552,1.141,9.301c1.878,6.75,6.035,14.569,6.359,15.146
		c0.325,0.576-2.038-1.979-5.462-7.243c-3.425-5.267-12.148-25.351-12.148-25.351s-1.955,3.54,0.165,12.016
		c2.117,8.477,9.619,19.838,10.189,20.495c0.57,0.659-6.602-4.691-10.76-10.041c-4.158-5.351-9.866-13.664-9.866-13.664
		s-0.323,3.293,2.61,9.465c2.935,6.175,7.744,13.251,8.072,13.911c0.324,0.659-10.518-7.901-10.518-7.901l-6.603-5.432
		c0,0-0.165,0.986,1.06,4.609c1.222,3.62,2.608,6.665,2.608,6.665s-0.817,0.659-0.733,3.952c0.08,3.292,2.12,5.763,2.12,5.763
		l-1.713-0.907c0,0-0.165,0.41,0.163,2.798c0.324,2.386,2.28,7.574,2.28,7.574s-2.691-3.128-2.28-2.637
		c0.405,0.495-5.626-5.926-10.106-14.651c-4.488-8.727-2.042-7.9-3.099-8.477c-1.06-0.576-1.795,5.762,0.977,11.523
		c2.771,5.763,14.347,21.071,14.347,21.071s-1.713-2.14-8.231-8.644c-6.522-6.502-21.031-27.242-21.604-27.736
		c-0.57-0.494-1.14,6.418,3.098,13.91c4.239,7.491,14.346,17.122,14.346,17.122l-28.692-21.154c0,0-0.486,0.328,0.978,3.045
		c1.469,2.718,5.381,5.556,5.381,5.556s-1.507,1.771,1.061,5.062c2.564,3.294,10.962,11.977,10.962,11.977s-6.033-2.51-6.604-2.427
		c-0.57,0.081,0.165,2.59,3.14,5.308c2.976,2.717,6.971,4.448,6.971,4.448s0.407,2.22,2.567,4.156
		c2.161,1.937,5.829,4.445,5.829,4.445l-2.688-0.163c0,0-0.167,0.41,0.812,2.056c0.978,1.646,4.158,3.951,4.158,3.951l-3.016,0.164
		c0,0,0.081,1.564,1.794,3.621c1.709,2.061,6.276,4.2,6.276,4.2l-1.957,0.409c0,0,0.082,0.412,1.55,2.306
		c1.466,1.893,3.665,2.962,3.665,2.962s0,0.576,0.653,1.978c0.652,1.398,2.12,3.128,2.12,3.128s-1.224,0.492-1.629,0.41
		c-0.411-0.083-0.084,0.33,1.141,3.375c1.222,3.044,3.502,4.814,3.502,4.814l-2.28,0.124c0,0-0.121,0.165,0.49,1.729
		c0.61,1.564,3.054,3.128,2.768,3.251c-0.282,0.123,0,0.699,0.858,1.604c0.854,0.906,3.302,1.44,3.302,1.44
		s-1.222,1.195-1.508,1.401C392.575,242.736,394.083,243.394,396.731,243.806L396.731,243.806z M416.676,281.407
		c2.147,3.434,2.568,6.059,2.688,6.731c0.067,0.386-0.198,0.881-0.577,1.249c-1.124-1.729-2.837-4.397-4.028-6.504
		c0.555-0.384,1.097-0.966,1.417-1.54C416.341,281.361,416.51,281.383,416.676,281.407L416.676,281.407z M416.191,292.322
		c-0.242,0.613-0.963,1.251-1.559,1.251h-0.091c-0.126-0.478-0.229-1.154,0.071-1.501c0.487-0.577,1.527-0.683,1.527-0.683
		S415.651,291.953,416.191,292.322L416.191,292.322z M421.318,300.483c-0.059-1.206-0.135-3.327-0.021-4.749
		c0.128-1.633-0.258-2.71-0.988-3.958c0.113-0.03,0.213-0.051,0.295-0.054c0.693-0.041,0.898-0.204,1.185,0.289
		c0.283,0.492,0.653,3.293,0.877,4.136s-0.042,1.399-0.308,1.771c-0.265,0.37-0.304,0.719-0.244,0.924l0.227,0.763
		c0,0,0.181,0.495-0.185,0.721C421.923,300.465,421.609,300.525,421.318,300.483z"/>
	<path id="book" fill="#FFFFFF" d="M354.982,306.522c0-1.776-0.824-3.453-2.223-4.53c-1.402-1.074-3.22-1.431-4.919-0.958
		l-97.043,27.022l-97.043-27.022c-1.696-0.473-3.515-0.116-4.917,0.958c-1.399,1.077-2.223,2.753-2.223,4.53v136.063
		c0,2.564,1.694,4.809,4.141,5.49l97.894,27.261c0.662,0.266,1.367,0.406,2.08,0.406c0.022,0,0.047-0.002,0.069-0.003
		c0.024,0.001,0.046,0.003,0.07,0.003c0.714,0,1.419-0.141,2.08-0.406l97.895-27.261c2.447-0.682,4.14-2.928,4.14-5.49V306.522z
		 M157.896,314.003l87.191,24.281V462.53l-87.191-24.28V314.003z M343.701,438.25l-87.194,24.28V338.282l87.194-24.279V438.25z"/>
</g>
</svg>
