<?xml version="1.0" encoding="utf-8"?>
<!-- Generator: Adobe Illustrator 16.0.0, SVG Export Plug-In . SVG Version: 6.00 Build 0)  -->
<!DOCTYPE svg PUBLIC "-//W3C//DTD SVG 1.1//EN" "http://www.w3.org/Graphics/SVG/1.1/DTD/svg11.dtd">
<svg version="1.1" id="Capa_1" xmlns="http://www.w3.org/2000/svg" xmlns:xlink="http://www.w3.org/1999/xlink" x="0px" y="0px"
	 width="512px" height="512px" viewBox="0 0 512 512" enable-background="new 0 0 512 512" xml:space="preserve">
<g>
	<path fill="#FFFFFF" d="M370.132,0H141.868c-19.017,0-34.582,15.55-34.582,34.582v442.821c0,19.032,15.564,34.597,34.582,34.597
		h228.264c19.018,0,34.582-15.535,34.582-34.582V34.582C404.714,15.55,389.149,0,370.132,0z M219.487,24.927h73.025
		c2.312,0,4.185,1.872,4.185,4.198c0,2.312-1.873,4.184-4.185,4.184h-73.025c-2.312,0-4.184-1.872-4.184-4.184
		C215.303,26.799,217.176,24.927,219.487,24.927z M256,494.709c-9.552,0-17.291-7.738-17.291-17.306s7.739-17.291,17.291-17.291
		c9.553,0,17.291,7.724,17.291,17.291S265.553,494.709,256,494.709z M380.65,448h-249.3V54.843h249.3V448z"/>
</g>
</svg>
