<?xml version="1.0" encoding="utf-8"?>
<!-- Generator: Adobe Illustrator 16.0.0, SVG Export Plug-In . SVG Version: 6.00 Build 0)  -->
<!DOCTYPE svg PUBLIC "-//W3C//DTD SVG 1.1//EN" "http://www.w3.org/Graphics/SVG/1.1/DTD/svg11.dtd">
<svg version="1.1" id="sound" xmlns="http://www.w3.org/2000/svg" xmlns:xlink="http://www.w3.org/1999/xlink" x="0px" y="0px"
	 width="50px" height="50px" viewBox="0 0 50 50" enable-background="new 0 0 50 50" xml:space="preserve">
<path id="sound_1_" fill="#FFFFFF" d="M44.898,12.635c-0.806-0.826-2.121-0.847-2.947-0.041c-0.825,0.806-0.846,2.122-0.051,2.948
	c5.06,5.212,5.068,13.709,0,18.921c-1.123,1.152-0.377,2.54,0.051,2.948c0.826,0.806,2.143,0.774,2.947-0.041
	C51.499,30.547,51.499,19.459,44.898,12.635z M38.516,17.276c-0.808-0.826-2.123-0.847-2.949-0.041
	c-0.825,0.796-0.846,2.122-0.051,2.948c2.58,2.652,2.521,6.926,0,9.64c-1.082,1.161-0.377,2.54,0.051,2.946
	c0.826,0.808,2.143,0.775,2.949-0.039C42.646,28.456,42.646,21.54,38.516,17.276z M25.958,0.568L11.749,13.879H2.232
	c-1.152,0-2.081,0.928-2.081,2.081v18.065c0,1.151,0.928,2.08,2.081,2.08h9.507l14.219,13.321c1.815,1.479,3.59-0.225,3.509-1.521
	V2.088C29.568,0.742,27.702-0.88,25.958,0.568z M10.321,31.943H4.312V18.041h5.998v13.902H10.321z M25.305,43.104L14.493,32.975
	V17.031L25.305,6.902V43.104z"/>
</svg>
