<?xml version="1.0" encoding="utf-8"?>
<!-- Generator: Adobe Illustrator 16.0.0, SVG Export Plug-In . SVG Version: 6.00 Build 0)  -->
<!DOCTYPE svg PUBLIC "-//W3C//DTD SVG 1.1//EN" "http://www.w3.org/Graphics/SVG/1.1/DTD/svg11.dtd">
<svg version="1.1" id="レイヤー_1" xmlns="http://www.w3.org/2000/svg" xmlns:xlink="http://www.w3.org/1999/xlink" x="0px"
	 y="0px" width="50px" height="50px" viewBox="0 0 50 50" enable-background="new 0 0 50 50" xml:space="preserve">
<path fill="#9E3578" d="M9.592,8.125C9.053,8.617,7.98,8.319,7.182,7.463C6.886,7.762,6.6,8.068,6.322,8.379
	c0.873,0.737,1.221,1.761,0.773,2.32c-0.447,0.561-1.523,0.448-2.436-0.241c-0.244,0.34-0.478,0.685-0.703,1.035
	c0.944,0.594,1.425,1.528,1.077,2.14c-0.348,0.613-1.398,0.678-2.392,0.17c-0.187,0.372-0.363,0.748-0.529,1.127
	c0.992,0.444,1.586,1.275,1.343,1.923c-0.244,0.648-1.24,0.882-2.281,0.561c-0.126,0.396-0.241,0.793-0.346,1.194
	c1.019,0.294,1.708,1.007,1.571,1.672c-0.136,0.667-1.054,1.051-2.108,0.917c-0.063,0.411-0.116,0.822-0.158,1.234
	c1.026,0.145,1.791,0.732,1.761,1.399c-0.031,0.67-0.853,1.187-1.894,1.234C0,25.481,0.011,25.896,0.033,26.311
	c1.017-0.005,1.842,0.452,1.915,1.106c0.074,0.659-0.638,1.29-1.64,1.508c0.065,0.41,0.14,0.819,0.225,1.226
	C1.522,30,2.391,30.323,2.564,30.95c0.174,0.634-0.419,1.362-1.359,1.736c0.127,0.394,0.264,0.787,0.412,1.177
	c0.945-0.293,1.842-0.109,2.109,0.48c0.269,0.594-0.193,1.399-1.053,1.916c0.188,0.37,0.384,0.737,0.591,1.1
	c0.882-0.428,1.785-0.382,2.139,0.153c0.357,0.542,0.032,1.403-0.727,2.047c0.242,0.337,0.494,0.67,0.754,0.997
	c0.801-0.553,1.694-0.647,2.125-0.176c0.437,0.479,0.251,1.378-0.395,2.131c0.293,0.3,0.593,0.59,0.898,0.871
	c0.705-0.672,1.572-0.905,2.071-0.505c0.508,0.405,0.463,1.328-0.062,2.176c0.334,0.25,0.675,0.49,1.02,0.721
	c0.591-0.781,1.417-1.152,1.976-0.835c0.569,0.323,0.667,1.25,0.271,2.177c0.369,0.193,0.742,0.379,1.119,0.554
	c0.46-0.877,1.226-1.38,1.831-1.154c0.617,0.233,0.857,1.146,0.602,2.132c0.394,0.135,0.791,0.259,1.19,0.374
	c0.314-0.952,0.996-1.582,1.635-1.45c0.652,0.133,1.033,1.015,0.925,2.041c0.41,0.072,0.82,0.135,1.233,0.187
	c0.153-1.006,0.734-1.751,1.393-1.723c0.674,0.031,1.194,0.864,1.235,1.914c0.415,0.009,0.83,0.006,1.245-0.005
	c-0.02-1.039,0.441-1.889,1.106-1.964c0.681-0.077,1.335,0.688,1.529,1.746c0.411-0.056,0.82-0.121,1.228-0.197
	c-0.203-1.043,0.12-1.984,0.776-2.165c0.674-0.185,1.454,0.497,1.802,1.542c0.397-0.119,0.791-0.248,1.183-0.387
	c-0.391-1.019-0.224-2.029,0.408-2.316c0.647-0.293,1.545,0.284,2.047,1.293c0.375-0.18,0.746-0.37,1.112-0.569
	c-0.575-0.958-0.578-2.012,0.01-2.4c0.604-0.398,1.604,0.052,2.258,1.004c0.343-0.237,0.681-0.484,1.015-0.74
	c-0.749-0.865-0.933-1.933-0.403-2.417c0.543-0.496,1.63-0.19,2.43,0.683c0.306-0.292,0.603-0.589,0.891-0.893
	c-0.911-0.739-1.281-1.793-0.826-2.365c0.46-0.576,1.585-0.442,2.513,0.298c0.016,0.013,0.03,0.026,0.046,0.039
	c0.259-0.338,0.508-0.682,0.748-1.03c-0.012-0.007-0.023-0.013-0.035-0.019c-1.032-0.586-1.573-1.581-1.209-2.223
	c0.364-0.64,1.496-0.684,2.528-0.099c0.037,0.021,0.07,0.043,0.105,0.064c0.204-0.379,0.399-0.762,0.582-1.149
	c-0.031-0.011-0.062-0.021-0.094-0.032c-1.111-0.417-1.802-1.315-1.543-2.005c0.26-0.689,1.371-0.911,2.482-0.493
	c0.057,0.021,0.111,0.044,0.166,0.068c0.143-0.41,0.276-0.822,0.397-1.237c-0.05-0.008-0.101-0.016-0.152-0.027
	c-1.163-0.238-1.985-1.016-1.838-1.739c0.149-0.722,1.212-1.114,2.374-0.875c0.076,0.016,0.15,0.034,0.223,0.054
	c0.077-0.43,0.143-0.862,0.198-1.296c-0.066,0.001-0.133,0-0.202-0.003c-1.186-0.054-2.12-0.694-2.087-1.431
	c0.034-0.736,1.022-1.29,2.208-1.236c0.094,0.005,0.185,0.015,0.275,0.025c0.01-0.442,0.005-0.884-0.009-1.326
	c-0.08,0.015-0.162,0.028-0.245,0.037c-1.18,0.133-2.202-0.354-2.285-1.086c-0.082-0.733,0.807-1.433,1.987-1.565
	c0.107-0.012,0.212-0.017,0.316-0.02c-0.061-0.442-0.133-0.882-0.219-1.322c-0.088,0.033-0.18,0.063-0.274,0.09
	c-1.145,0.315-2.23-0.005-2.427-0.716c-0.196-0.711,0.573-1.543,1.718-1.858c0.116-0.031,0.23-0.056,0.344-0.075
	c-0.131-0.429-0.275-0.856-0.431-1.28c-0.09,0.052-0.185,0.102-0.283,0.146c-1.082,0.491-2.204,0.344-2.509-0.327
	c-0.305-0.671,0.325-1.613,1.406-2.104c0.117-0.053,0.234-0.097,0.351-0.135c-0.199-0.405-0.409-0.806-0.632-1.202
	c-0.086,0.07-0.176,0.138-0.273,0.201c-0.991,0.654-2.122,0.685-2.529,0.07c-0.405-0.616,0.069-1.644,1.06-2.297
	c0.109-0.073,0.221-0.136,0.333-0.193c-0.262-0.368-0.536-0.73-0.819-1.086c-0.075,0.083-0.154,0.165-0.24,0.244
	c-0.876,0.801-1.989,1.009-2.487,0.464c-0.497-0.545-0.189-1.634,0.688-2.435c0.097-0.089,0.197-0.168,0.299-0.243
	c-0.319-0.326-0.646-0.641-0.979-0.945c-0.061,0.094-0.126,0.187-0.199,0.278c-0.74,0.928-1.808,1.307-2.384,0.847
	c-0.576-0.46-0.443-1.584,0.298-2.512c0.081-0.102,0.167-0.196,0.255-0.284c-0.366-0.271-0.738-0.53-1.115-0.778
	C38.666,4.189,38.617,4.29,38.56,4.39c-0.585,1.032-1.581,1.574-2.222,1.21c-0.641-0.364-0.685-1.496-0.099-2.528
	c0.062-0.109,0.129-0.211,0.2-0.309c-0.402-0.207-0.809-0.401-1.22-0.585c-0.027,0.099-0.058,0.2-0.096,0.301
	c-0.417,1.112-1.315,1.802-2.005,1.542s-0.911-1.37-0.493-2.481c0.041-0.107,0.087-0.21,0.136-0.31
	c-0.426-0.139-0.855-0.267-1.287-0.382c-0.011,0.093-0.025,0.187-0.044,0.281c-0.238,1.163-1.017,1.985-1.739,1.838
	c-0.722-0.149-1.114-1.211-0.875-2.374c0.021-0.099,0.046-0.195,0.074-0.29c-0.438-0.068-0.876-0.125-1.317-0.171
	c0.001,0.08,0.001,0.16-0.002,0.241c-0.054,1.187-0.694,2.12-1.431,2.087c-0.736-0.034-1.289-1.022-1.235-2.208
	C24.911,0.168,24.919,0.083,24.929,0c-0.438,0.001-0.876,0.015-1.314,0.039c0.011,0.064,0.021,0.129,0.028,0.195
	c0.132,1.18-0.354,2.202-1.086,2.285c-0.733,0.082-1.434-0.808-1.566-1.987c-0.007-0.069-0.013-0.138-0.017-0.206
	c-0.428,0.069-0.854,0.149-1.279,0.241c0.015,0.047,0.031,0.093,0.044,0.141c0.316,1.144-0.005,2.23-0.715,2.427
	c-0.711,0.196-1.542-0.574-1.858-1.718c-0.013-0.05-0.025-0.101-0.036-0.151c-0.407,0.135-0.812,0.281-1.213,0.438
	c0.014,0.028,0.028,0.055,0.041,0.083c0.491,1.082,0.344,2.204-0.327,2.509C14.958,4.6,14.018,3.97,13.527,2.889
	c-0.014-0.029-0.024-0.058-0.037-0.087c-0.376,0.195-0.749,0.401-1.117,0.617c0.006,0.009,0.012,0.017,0.018,0.025
	c0.654,0.991,0.685,2.123,0.069,2.53c-0.616,0.406-1.644-0.069-2.297-1.06c-0.005-0.009-0.01-0.017-0.016-0.026
	C9.81,5.137,9.478,5.397,9.15,5.666C9.932,6.537,10.13,7.633,9.592,8.125z M6.761,20.365c-0.574-0.182-0.892-0.795-0.71-1.369
	s0.795-0.892,1.37-0.71c0.575,0.183,0.892,0.795,0.709,1.37S7.335,20.547,6.761,20.365z M10.321,38.421
	c-0.406-0.444-0.375-1.134,0.07-1.541c0.445-0.406,1.135-0.375,1.541,0.07c0.406,0.445,0.375,1.134-0.07,1.541
	C11.417,38.898,10.727,38.866,10.321,38.421z M29.279,44.437c-0.589,0.129-1.17-0.243-1.299-0.832
	c-0.13-0.588,0.243-1.17,0.831-1.299c0.588-0.13,1.169,0.242,1.299,0.831C30.239,43.725,29.868,44.307,29.279,44.437z
	 M43.258,29.657c0.574,0.182,0.891,0.795,0.709,1.369c-0.182,0.574-0.795,0.892-1.37,0.71c-0.574-0.183-0.892-0.796-0.71-1.37
	C42.07,29.792,42.683,29.474,43.258,29.657z M39.697,11.6c0.406,0.444,0.375,1.134-0.07,1.541c-0.444,0.406-1.134,0.375-1.541-0.07
	c-0.406-0.445-0.375-1.135,0.07-1.541S39.292,11.155,39.697,11.6z M20.739,5.584c0.588-0.129,1.17,0.243,1.299,0.832
	c0.129,0.589-0.243,1.17-0.831,1.299c-0.588,0.129-1.17-0.243-1.299-0.831C19.779,6.296,20.151,5.714,20.739,5.584z M17.72,7.681
	c0.526,1.667,2.246,2.686,3.986,2.304c1.738-0.382,2.871-2.025,2.653-3.757c4.237-0.145,8.498,1.137,12.012,3.809
	c-1.178,1.289-1.2,3.286,0,4.601c1.2,1.314,3.191,1.474,4.581,0.418c2.342,3.741,3.232,8.101,2.704,12.307
	c-1.705-0.374-3.444,0.605-3.983,2.301c-0.539,1.698,0.321,3.503,1.933,4.179c-0.982,1.846-2.289,3.561-3.922,5.052
	c-1.633,1.491-3.459,2.636-5.387,3.447c-0.526-1.667-2.246-2.686-3.986-2.303c-1.738,0.381-2.872,2.025-2.653,3.756
	c-4.236,0.144-8.497-1.137-12.011-3.809c1.178-1.289,1.2-3.287,0-4.601c-1.2-1.315-3.191-1.474-4.582-0.418
	c-2.342-3.741-3.232-8.101-2.703-12.307c1.704,0.375,3.444-0.605,3.982-2.301c0.539-1.697-0.32-3.503-1.933-4.178
	c0.982-1.847,2.289-3.561,3.922-5.052C13.967,9.637,15.792,8.491,17.72,7.681z M20.637,49.616c0.41,0.072,0.82,0.135,1.233,0.187
	c0.022-0.147,0.054-0.287,0.094-0.421c-0.438-0.054-0.875-0.121-1.312-0.2C20.657,49.323,20.652,49.467,20.637,49.616z
	 M25.742,49.989c-0.002-0.147,0.005-0.291,0.021-0.429c-0.438,0.013-0.875,0.016-1.312,0.005c0.025,0.138,0.041,0.281,0.047,0.429
	C24.912,50.003,25.327,50,25.742,49.989z M49.719,25.476c0.094,0.004,0.186,0.014,0.275,0.025c0.01-0.442,0.006-0.884-0.008-1.325
	c-0.08,0.015-0.162,0.027-0.245,0.037c-0.062,0.007-0.122,0.011-0.183,0.015c0.013,0.416,0.016,0.832,0.008,1.248
	C49.617,25.474,49.667,25.474,49.719,25.476z M49.443,21.561c0.107-0.012,0.212-0.017,0.316-0.02
	c-0.061-0.442-0.134-0.882-0.219-1.322c-0.088,0.033-0.18,0.063-0.273,0.09c-0.048,0.013-0.094,0.023-0.141,0.033
	c0.079,0.41,0.147,0.822,0.205,1.235C49.369,21.571,49.405,21.564,49.443,21.561z M48.558,17.735
	c0.116-0.031,0.23-0.055,0.344-0.074c-0.131-0.43-0.276-0.856-0.431-1.281c-0.091,0.052-0.185,0.102-0.284,0.146
	c-0.036,0.016-0.071,0.03-0.107,0.045c0.143,0.394,0.276,0.79,0.399,1.188C48.507,17.752,48.532,17.743,48.558,17.735z
	 M18.077,49.025c0.046-0.141,0.102-0.275,0.164-0.401c-0.428-0.122-0.853-0.255-1.275-0.4c-0.016,0.14-0.042,0.283-0.079,0.427
	C17.28,48.786,17.678,48.91,18.077,49.025z M14.453,47.673c0.07-0.132,0.147-0.255,0.229-0.37c-0.406-0.188-0.807-0.388-1.205-0.599
	c-0.037,0.137-0.084,0.276-0.143,0.415C13.704,47.312,14.077,47.498,14.453,47.673z M11.088,45.776
	c0.09-0.12,0.188-0.23,0.288-0.329c-0.373-0.25-0.742-0.511-1.104-0.783c-0.058,0.131-0.125,0.262-0.205,0.392
	C10.403,45.306,10.744,45.545,11.088,45.776z M49.379,29.388c0.076,0.016,0.15,0.034,0.223,0.054
	c0.078-0.43,0.143-0.862,0.198-1.296c-0.067,0.001-0.134,0-0.202-0.002c-0.077-0.003-0.152-0.01-0.227-0.018
	c-0.052,0.412-0.115,0.821-0.188,1.229C49.248,29.363,49.313,29.374,49.379,29.388z M47.085,14.097
	c0.117-0.053,0.234-0.097,0.351-0.135c-0.199-0.405-0.409-0.806-0.633-1.203c-0.086,0.07-0.175,0.138-0.272,0.202
	c-0.028,0.019-0.057,0.035-0.084,0.052c0.206,0.366,0.401,0.737,0.586,1.111C47.05,14.115,47.067,14.104,47.085,14.097z
	 M44.821,40.142c0.016,0.013,0.031,0.026,0.046,0.039c0.259-0.338,0.508-0.683,0.748-1.031c-0.012-0.007-0.023-0.012-0.035-0.018
	c-0.114-0.065-0.221-0.136-0.323-0.21c-0.235,0.34-0.479,0.678-0.733,1.009C44.625,39.996,44.724,40.065,44.821,40.142z
	 M4.659,10.458c-0.244,0.34-0.478,0.686-0.703,1.035c0.132,0.083,0.253,0.173,0.366,0.267c0.229-0.356,0.467-0.708,0.716-1.055
	C4.91,10.634,4.783,10.552,4.659,10.458z M38.94,45.241c0.092,0.104,0.18,0.215,0.262,0.334c0.342-0.236,0.681-0.483,1.015-0.74
	c-0.094-0.11-0.181-0.223-0.257-0.337C39.625,44.756,39.285,45.004,38.94,45.241z M29.605,49.574
	c-0.028-0.144-0.045-0.286-0.053-0.424c-0.426,0.08-0.852,0.148-1.28,0.205c0.043,0.133,0.079,0.272,0.105,0.416
	C28.788,49.716,29.197,49.65,29.605,49.574z M7.512,7.772c-0.113-0.093-0.224-0.196-0.33-0.309C6.886,7.762,6.6,8.068,6.322,8.379
	c0.119,0.1,0.227,0.206,0.325,0.315C6.927,8.381,7.214,8.074,7.512,7.772z M48.432,33.197c0.057,0.022,0.111,0.045,0.166,0.069
	c0.143-0.41,0.276-0.822,0.397-1.237c-0.05-0.009-0.102-0.016-0.153-0.027c-0.09-0.018-0.178-0.042-0.264-0.066
	c-0.117,0.398-0.245,0.792-0.38,1.185C48.276,33.143,48.354,33.167,48.432,33.197z M35.822,47.542c0.374-0.18,0.746-0.37,1.113-0.57
	c-0.075-0.125-0.14-0.25-0.195-0.376c-0.374,0.203-0.75,0.396-1.131,0.578C35.685,47.289,35.756,47.412,35.822,47.542z
	 M33.367,48.565c-0.052-0.136-0.094-0.272-0.126-0.406c-0.403,0.143-0.81,0.274-1.218,0.396c0.061,0.125,0.115,0.257,0.161,0.396
	C32.581,48.833,32.975,48.704,33.367,48.565z M46.899,36.812c0.037,0.021,0.07,0.042,0.105,0.064
	c0.204-0.378,0.399-0.762,0.582-1.148c-0.031-0.011-0.062-0.021-0.094-0.032c-0.104-0.039-0.203-0.084-0.299-0.13
	c-0.178,0.373-0.365,0.744-0.562,1.111C46.721,36.717,46.811,36.761,46.899,36.812z M41.937,42.807
	c0.105,0.089,0.207,0.187,0.306,0.294c0.306-0.292,0.603-0.589,0.891-0.893c-0.113-0.092-0.216-0.187-0.312-0.286
	C42.536,42.223,42.241,42.518,41.937,42.807z M0.574,22.528c0.044-0.437,0.1-0.872,0.167-1.305
	c-0.146,0.002-0.297-0.005-0.451-0.025c-0.062,0.411-0.116,0.822-0.158,1.234C0.287,22.455,0.434,22.488,0.574,22.528z
	 M27.557,0.583c0.412,0.043,0.825,0.096,1.235,0.161c0.008-0.049,0.015-0.099,0.025-0.148c0.021-0.099,0.047-0.195,0.075-0.289
	c-0.438-0.069-0.877-0.126-1.317-0.171c0.001,0.08,0.001,0.16-0.002,0.241C27.57,0.446,27.564,0.515,27.557,0.583z M23.661,0.486
	c0.414-0.022,0.829-0.035,1.243-0.037c0-0.064,0-0.129,0.003-0.194C24.911,0.168,24.919,0.083,24.929,0
	c-0.438,0.001-0.876,0.015-1.314,0.039c0.011,0.064,0.021,0.129,0.028,0.195C23.652,0.318,23.658,0.402,23.661,0.486z M1.252,18.765
	c0.11-0.419,0.229-0.835,0.361-1.248c-0.145-0.023-0.292-0.057-0.439-0.102c-0.126,0.396-0.241,0.793-0.346,1.194
	C0.977,18.652,1.119,18.706,1.252,18.765z M0.483,26.342c-0.023-0.443-0.036-0.886-0.035-1.329C0.304,25.04,0.154,25.059,0,25.065
	C0,25.481,0.012,25.896,0.034,26.311C0.188,26.31,0.339,26.322,0.483,26.342z M19.806,1.003c0.405-0.088,0.813-0.165,1.222-0.231
	C21.013,0.693,21,0.613,20.991,0.531c-0.007-0.069-0.013-0.138-0.017-0.206c-0.428,0.07-0.854,0.15-1.279,0.242
	c0.015,0.046,0.031,0.093,0.044,0.141C19.767,0.807,19.788,0.905,19.806,1.003z M12.601,3.809c0.36-0.211,0.724-0.412,1.092-0.603
	C13.634,3.104,13.578,3,13.527,2.889c-0.014-0.029-0.024-0.058-0.037-0.087c-0.376,0.195-0.749,0.401-1.117,0.617
	c0.006,0.009,0.012,0.017,0.018,0.025C12.471,3.563,12.54,3.686,12.601,3.809z M16.087,2.121c0.388-0.151,0.778-0.292,1.172-0.423
	c-0.034-0.091-0.066-0.185-0.093-0.282c-0.014-0.05-0.025-0.1-0.037-0.15c-0.407,0.135-0.812,0.281-1.213,0.438
	c0.014,0.027,0.028,0.055,0.041,0.083C16.008,1.897,16.05,2.009,16.087,2.121z M10.417,5.25c-0.089-0.104-0.174-0.218-0.254-0.338
	c-0.005-0.008-0.01-0.017-0.015-0.025c-0.338,0.25-0.67,0.509-0.998,0.777C9.255,5.78,9.347,5.9,9.43,6.021
	C9.754,5.755,10.083,5.498,10.417,5.25z M2.51,15.144c0.171-0.391,0.354-0.779,0.547-1.163c-0.138-0.048-0.278-0.107-0.417-0.178
	c-0.187,0.372-0.363,0.748-0.529,1.128C2.253,14.994,2.386,15.066,2.51,15.144z M31.394,1.29c0.401,0.108,0.802,0.227,1.199,0.355
	c0.012-0.034,0.022-0.068,0.035-0.103c0.041-0.107,0.087-0.21,0.136-0.31c-0.427-0.139-0.855-0.267-1.287-0.382
	c-0.011,0.093-0.025,0.187-0.045,0.281C31.421,1.185,31.408,1.238,31.394,1.29z M38.506,4.484c0.349,0.229,0.692,0.468,1.03,0.717
	c0.013-0.016,0.024-0.033,0.036-0.048c0.082-0.102,0.167-0.196,0.256-0.284c-0.366-0.271-0.737-0.53-1.115-0.778
	c-0.045,0.101-0.094,0.202-0.151,0.301C38.545,4.424,38.525,4.453,38.506,4.484z M5.431,40.558c0.126-0.087,0.255-0.161,0.382-0.225
	c-0.284-0.356-0.558-0.718-0.819-1.084c-0.095,0.109-0.2,0.213-0.317,0.312C4.918,39.898,5.17,40.23,5.431,40.558z M0.981,30.116
	c-0.092-0.437-0.173-0.876-0.241-1.317c-0.137,0.05-0.28,0.094-0.432,0.127c0.064,0.41,0.14,0.819,0.225,1.226
	C0.687,30.128,0.836,30.118,0.981,30.116z M8.059,43.385c0.11-0.104,0.224-0.198,0.34-0.28c-0.332-0.306-0.656-0.621-0.975-0.947
	c-0.077,0.121-0.164,0.241-0.263,0.356C7.455,42.813,7.754,43.104,8.059,43.385z M41.594,6.894c0.307,0.281,0.607,0.572,0.903,0.872
	c0.014-0.013,0.026-0.026,0.04-0.039c0.097-0.088,0.197-0.168,0.299-0.243c-0.319-0.326-0.646-0.641-0.979-0.945
	c-0.062,0.094-0.126,0.187-0.199,0.278C41.637,6.844,41.615,6.869,41.594,6.894z M2.052,33.763c-0.16-0.42-0.307-0.845-0.443-1.272
	c-0.126,0.072-0.26,0.139-0.404,0.196c0.127,0.394,0.264,0.787,0.412,1.177C1.764,33.818,1.91,33.786,2.052,33.763z M44.263,9.76
	c0.261,0.33,0.514,0.665,0.755,1.004c0.015-0.01,0.028-0.021,0.043-0.031c0.11-0.073,0.221-0.136,0.333-0.193
	c-0.261-0.368-0.535-0.729-0.819-1.086c-0.075,0.083-0.154,0.165-0.24,0.244C44.312,9.719,44.287,9.739,44.263,9.76z M35.077,2.602
	c0.38,0.17,0.756,0.351,1.129,0.542c0.013-0.023,0.023-0.046,0.036-0.069c0.062-0.109,0.13-0.211,0.2-0.309
	c-0.401-0.207-0.809-0.401-1.22-0.585c-0.027,0.099-0.058,0.2-0.096,0.3C35.11,2.522,35.093,2.562,35.077,2.602z M3.678,37.196
	c-0.225-0.393-0.439-0.791-0.641-1.192c-0.112,0.091-0.233,0.178-0.364,0.256c0.187,0.37,0.384,0.737,0.591,1.1
	C3.402,37.294,3.541,37.24,3.678,37.196z"/>
</svg>
