<?xml version="1.0" encoding="utf-8"?>
<!-- Generator: Adobe Illustrator 16.0.0, SVG Export Plug-In . SVG Version: 6.00 Build 0)  -->
<!DOCTYPE svg PUBLIC "-//W3C//DTD SVG 1.1//EN" "http://www.w3.org/Graphics/SVG/1.1/DTD/svg11.dtd">
<svg version="1.1" id="レイヤー_1" xmlns="http://www.w3.org/2000/svg" xmlns:xlink="http://www.w3.org/1999/xlink" x="0px"
	 y="0px" width="530px" height="101px" viewBox="0 0 530 101" enable-background="new 0 0 530 101" xml:space="preserve">
<g id="shadow" opacity="0.71">
	<path id="B" fill="#333333" d="M5.001,13.665h18.111c14.171,0,21.258,7.66,21.258,22.979c0,5.851-0.921,10.195-2.763,13.026
		c-1.842,2.832-5.095,4.979-9.76,6.432c5.353,1.863,9.012,4.248,10.98,7.154c2.014,2.871,3.021,7.195,3.021,12.973
		c0,15.846-7.793,23.764-23.376,23.764H5.002L5.001,13.665L5.001,13.665z M17.59,51.682c5.181,0,8.774-1.041,10.79-3.129
		c2.01-2.198,3.019-6.058,3.019-11.575C31.399,27.662,27.546,23,19.838,23h-1.027h-0.577c-0.344,0-0.558,0.02-0.643,0.056
		L17.59,51.682L17.59,51.682z M17.59,90.039c5.48,0,9.268-1.025,11.367-3.076c2.098-2.049,3.146-5.756,3.146-11.125
		c0-5.516-1.093-9.375-3.274-11.574c-2.14-2.232-5.887-3.354-11.238-3.354L17.59,90.039L17.59,90.039z"/>
	<path id="i" fill="#333333" d="M58.953,17.524c2.227,0,4.153,0.709,5.78,2.124c1.626,1.416,2.442,3.112,2.442,5.089
		c0,2.012-0.813,3.728-2.442,5.143c-1.627,1.416-3.595,2.125-5.908,2.125c-2.314,0-4.285-0.708-5.909-2.125
		c-1.585-1.378-2.379-3.11-2.379-5.199c0-1.938,0.813-3.615,2.443-5.031C54.735,18.231,56.728,17.524,58.953,17.524z M53.174,42.124
		h12.331v57.865H53.174V42.124z"/>
	<path id="r" fill="#333333" d="M74.049,42.124h12.267v7.212c2.098-3.056,4.173-5.2,6.23-6.431c2.055-1.229,4.771-1.938,8.156-2.125
		v11.183c-0.857-0.111-1.585-0.168-2.184-0.168c-4.411,0-7.557,0.988-9.441,2.965c-1.841,1.938-2.763,5.332-2.763,10.178v35.051
		H74.049V42.124z"/>
	<path id="d" fill="#333333" d="M141.872,4.999v94.99h-12.265v-7.434c-1.755,3.168-3.511,5.35-5.268,6.539
		c-1.753,1.191-4.088,1.789-6.999,1.789c-5.48,0-9.502-2.449-12.073-7.354c-2.569-4.9-3.854-12.604-3.854-23.115
		c0-5.066,0.321-9.451,0.965-13.145c0.642-3.686,1.616-6.725,2.921-9.109c1.305-2.385,2.988-4.146,5.041-5.283
		c2.055-1.135,4.497-1.704,7.323-1.704c2.698,0,4.925,0.56,6.678,1.677c0.858,0.522,1.736,1.268,2.635,2.233
		c0.899,0.972,1.777,2.164,2.634,3.579V4.999H141.872z M114.13,70.807c0,7.604,0.577,12.914,1.733,15.936
		c1.198,3.018,3.296,4.525,6.293,4.525c2.738,0,4.731-1.562,5.972-4.693c1.242-3.354,1.863-8.518,1.863-15.488
		c0-7.008-0.62-12.189-1.863-15.545c-1.241-3.129-3.233-4.695-5.972-4.695c-2.912,0-4.989,1.492-6.23,4.473
		C114.728,58.076,114.13,63.238,114.13,70.807z"/>
	<path id="A" fill="#333333" d="M165.382,13.665h10.403l21.256,86.324h-13.228l-3.725-16.828h-19.651l-3.79,16.828h-12.842
		L165.382,13.665z M178.162,74.16l-2.955-13.754c-1.969-9.355-3.577-19.346-4.816-29.968c-0.601,5.183-1.37,10.427-2.313,15.742
		c-0.94,5.31-2.055,10.948-3.337,16.911l-2.442,11.072h15.861V74.16H178.162z"/>
	<path id="l" fill="#333333" d="M198.909,4.999h12.268v94.99h-12.268V4.999z"/>
	<path id="b" fill="#333333" d="M219.853,4.999h12.267v43.666c0.855-1.415,1.734-2.606,2.634-3.579
		c0.898-0.968,1.775-1.712,2.634-2.233c1.712-1.118,3.938-1.677,6.679-1.677c2.825,0,5.266,0.569,7.32,1.704
		c2.056,1.137,3.734,2.898,5.043,5.283c1.305,2.386,2.279,5.425,2.922,9.111c0.642,3.691,0.963,8.074,0.963,13.141
		c0,10.514-1.285,18.219-3.852,23.119c-2.57,4.9-6.594,7.354-12.073,7.354c-2.913,0-5.245-0.598-7.001-1.793
		c-1.756-1.188-3.512-3.371-5.266-6.539v7.438h-12.267V4.999H219.853z M247.595,71.363c0-7.865-0.6-13.193-1.799-15.99
		c-1.155-3.02-3.232-4.529-6.229-4.529c-2.827,0-4.815,1.529-5.972,4.584c-1.156,3.021-1.733,8.238-1.733,15.654
		c0,7.383,0.577,12.6,1.733,15.656c1.156,3.02,3.145,4.527,5.972,4.527c2.912,0,4.987-1.492,6.229-4.473
		C246.996,84.039,247.595,78.893,247.595,71.363z"/>
	<path id="u" fill="#333333" d="M266.479,42.124h12.269v38.689c0.086,3.58,0.696,6.129,1.83,7.66
		c1.133,1.525,3.028,2.291,5.684,2.291c2.783,0,4.73-0.668,5.845-2.016c1.112-1.416,1.672-3.875,1.672-7.381v-4.645V42.124h12.266
		V76.73c0,8.088-0.685,13.494-2.057,16.215c-2.865,5.295-8.819,7.938-17.853,7.938c-7.104,0-12.161-1.561-15.155-4.693
		c-3-3.17-4.498-8.441-4.498-15.818L266.479,42.124L266.479,42.124z"/>
	<path id="m" fill="#333333" d="M314.651,42.124h12.266v7.156c3.382-5.403,7.877-8.106,13.486-8.106
		c6.126,0,10.273,2.703,12.46,8.106c3.253-5.403,7.878-8.106,13.875-8.106c4.665,0,8.229,1.071,10.688,3.214
		c2.461,2.145,3.693,5.304,3.693,9.479v46.121h-12.332V61.916c0-4.361-0.471-7.289-1.412-8.777
		c-0.897-1.527-2.654-2.293-5.264-2.293c-2.955,0-4.97,0.783-6.039,2.348c-1.026,1.531-1.539,4.438-1.539,8.725v38.07h-12.718
		V61.916c0-2.047-0.117-3.785-0.354-5.201c-0.231-1.414-0.63-2.551-1.187-3.41c-0.559-0.854-1.285-1.479-2.188-1.873
		c-0.896-0.393-2.008-0.588-3.336-0.588c-2.829,0-4.84,0.838-6.039,2.516c-1.197,1.678-1.799,4.531-1.799,8.555v38.074h-12.263
		V42.124L314.651,42.124z"/>
	<path id="_x33_" fill="#333333" d="M402.706,36.813h-12.715V34.52c0-3.838,0.371-7.135,1.122-9.896
		c0.745-2.758,1.927-5.031,3.526-6.822c1.607-1.789,3.652-3.103,6.136-3.94c2.481-0.839,5.46-1.258,8.93-1.258
		c7.277,0,12.586,1.79,15.926,5.37c3.337,3.578,5.007,9.263,5.007,17.053c0,6.411-0.77,11.033-2.312,13.866
		c-1.496,2.869-4.391,5.051-8.668,6.541c4.621,1.381,7.812,3.521,9.565,6.432c1.753,2.867,2.638,7.475,2.638,13.809
		c0,8.686-1.888,15.076-5.653,19.178c-3.77,4.104-9.633,6.15-17.596,6.15c-13.614,0-20.425-6.803-20.425-20.408v-0.895v-0.615
		c0-0.41,0.021-0.668,0.066-0.783h12.52c-0.04,0.633-0.074,1.184-0.096,1.65c-0.018,0.467-0.031,0.848-0.031,1.146
		c0,2.943,0.738,5.295,2.218,7.043c1.479,1.754,3.498,2.629,6.069,2.629c1.669,0,3.09-0.287,4.271-0.867
		c1.175-0.574,2.139-1.508,2.892-2.795c0.747-1.283,1.293-2.953,1.636-5.004c0.345-2.045,0.519-4.525,0.519-7.436
		c0-5.254-0.914-9.037-2.729-11.35c-1.819-2.311-4.853-3.467-9.089-3.467c-0.473,0-0.984,0.029-1.543,0.084
		c-0.555,0.059-1.196,0.121-1.928,0.195V50.064h1.863c5.18,0,8.69-0.969,10.532-2.906c1.839-1.939,2.76-5.611,2.76-11.015
		c0-8.946-2.587-13.417-7.771-13.417c-5.14,0-7.709,3.818-7.709,11.463L402.706,36.813z"/>
	<path id="_x36_" fill="#333333" d="M458.004,13.665h14.194l-9.312,16.607c-1.624,3.019-3.264,6.224-4.911,9.616
		c-1.649,3.393-3.374,7.008-5.171,10.845c3.726-2.572,7.297-3.857,10.727-3.857c5.52,0,9.779,2.087,12.777,6.261
		c2.826,3.914,4.236,10.922,4.236,21.023c0,9.541-1.648,16.418-4.943,20.631c-3.299,4.137-8.672,6.207-16.117,6.207
		c-7.621,0-13.123-2.295-16.504-6.881c-3.385-4.619-5.071-12.152-5.071-22.59c0-8.758,1.327-17.107,3.979-25.046
		c1.369-3.95,3.395-8.61,6.069-13.979C450.63,27.14,453.979,20.858,458.004,13.665z M467.766,74.104
		c0-2.982-0.147-5.523-0.448-7.633c-0.297-2.105-0.793-3.82-1.477-5.145c-0.686-1.324-1.555-2.293-2.602-2.91
		c-1.049-0.611-2.322-0.92-3.82-0.92c-1.502,0-2.773,0.309-3.823,0.92c-1.049,0.617-1.916,1.578-2.601,2.881
		c-0.688,1.307-1.176,3.012-1.479,5.115c-0.301,2.105-0.447,4.633-0.447,7.576c0,11.293,2.781,16.938,8.35,16.938
		C464.982,90.932,467.766,85.322,467.766,74.104z"/>
	<path id="_x35_" fill="#333333" d="M497.186,13.665h31.532v10.01h-21.385l-3.21,21.693h1.604c3.896,0,7.352,0.538,10.37,1.621
		c3.021,1.081,5.562,2.666,7.608,4.751c2.059,2.088,3.618,4.658,4.688,7.713c1.069,3.059,1.604,6.545,1.604,10.459
		c0,9.693-2.416,17.311-7.256,22.867c-4.838,5.479-11.559,8.217-20.163,8.217c-4.84,0-10.084-1.193-15.735-3.578l3.34-10.285
		c4.579,2.086,8.411,3.129,11.496,3.129c4.363,0,7.832-1.713,10.4-5.143c2.569-3.467,3.854-8.127,3.854-13.98
		c0-11.066-5.459-16.604-16.375-16.604c-2.699,0-5.418,0.352-8.154,1.062L497.186,13.665z"/>
</g>
<g id="text">
	<path id="B_1_" fill="#FFFFFF" d="M0.001,8.665h18.111c14.171,0,21.258,7.66,21.258,22.979c0,5.851-0.921,10.195-2.763,13.027
		c-1.842,2.832-5.095,4.978-9.76,6.431c5.353,1.863,9.012,4.248,10.98,7.154c2.014,2.871,3.021,7.195,3.021,12.973
		c0,15.846-7.793,23.764-23.376,23.764H0.002L0.001,8.665L0.001,8.665z M12.59,46.683c5.181,0,8.774-1.041,10.79-3.129
		c2.01-2.199,3.019-6.059,3.019-11.576C26.399,22.662,22.546,18,14.838,18h-1.027h-0.577c-0.344,0-0.558,0.02-0.643,0.056
		L12.59,46.683L12.59,46.683z M12.59,85.039c5.48,0,9.268-1.025,11.367-3.076c2.098-2.049,3.146-5.756,3.146-11.125
		c0-5.516-1.093-9.375-3.274-11.574c-2.14-2.232-5.887-3.354-11.238-3.354L12.59,85.039L12.59,85.039z"/>
	<path id="i_1_" fill="#FFFFFF" d="M53.953,12.524c2.227,0,4.153,0.709,5.78,2.124c1.626,1.416,2.442,3.112,2.442,5.089
		c0,2.012-0.813,3.728-2.442,5.143c-1.627,1.416-3.595,2.125-5.908,2.125c-2.314,0-4.285-0.708-5.909-2.125
		c-1.585-1.378-2.379-3.11-2.379-5.199c0-1.938,0.813-3.615,2.443-5.031C49.735,13.231,51.728,12.524,53.953,12.524z M48.174,37.124
		h12.331v57.865H48.174V37.124z"/>
	<path id="r_1_" fill="#FFFFFF" d="M69.049,37.124h12.267v7.213c2.098-3.057,4.173-5.201,6.23-6.432
		c2.055-1.229,4.771-1.938,8.156-2.125v11.184c-0.857-0.111-1.585-0.168-2.184-0.168c-4.411,0-7.557,0.988-9.441,2.964
		c-1.841,1.938-2.763,5.332-2.763,10.178v35.051H69.049V37.124z"/>
	<path id="d_1_" fill="#FFFFFF" d="M136.872-0.001v94.99h-12.265v-7.434c-1.755,3.168-3.511,5.35-5.268,6.539
		c-1.753,1.191-4.088,1.789-6.999,1.789c-5.48,0-9.502-2.449-12.073-7.354c-2.569-4.9-3.854-12.604-3.854-23.115
		c0-5.066,0.321-9.451,0.965-13.145c0.642-3.686,1.616-6.725,2.921-9.109c1.305-2.385,2.988-4.146,5.041-5.283
		c2.055-1.135,4.497-1.704,7.323-1.704c2.698,0,4.925,0.56,6.678,1.677c0.858,0.522,1.736,1.268,2.635,2.233
		c0.899,0.972,1.777,2.164,2.634,3.579V-0.001H136.872z M109.13,65.807c0,7.604,0.577,12.914,1.733,15.936
		c1.198,3.018,3.296,4.525,6.293,4.525c2.738,0,4.731-1.562,5.972-4.693c1.242-3.354,1.863-8.518,1.863-15.488
		c0-7.008-0.62-12.189-1.863-15.545c-1.241-3.129-3.233-4.694-5.972-4.694c-2.912,0-4.989,1.491-6.23,4.472
		C109.728,53.076,109.13,58.238,109.13,65.807z"/>
	<path id="A_1_" fill="#FFFFFF" d="M160.382,8.665h10.403l21.256,86.324h-13.228l-3.725-16.828h-19.651l-3.79,16.828h-12.842
		L160.382,8.665z M173.162,69.16l-2.955-13.754c-1.969-9.356-3.577-19.346-4.816-29.968c-0.601,5.183-1.37,10.427-2.313,15.742
		c-0.94,5.31-2.055,10.948-3.337,16.911l-2.442,11.072h15.861V69.16H173.162z"/>
	<path id="l_1_" fill="#FFFFFF" d="M193.909-0.001h12.268v94.99h-12.268V-0.001z"/>
	<path id="b_1_" fill="#FFFFFF" d="M214.853-0.001h12.267v43.666c0.855-1.415,1.734-2.607,2.634-3.579
		c0.898-0.968,1.775-1.712,2.634-2.233c1.712-1.118,3.938-1.677,6.679-1.677c2.825,0,5.266,0.569,7.32,1.704
		c2.056,1.137,3.734,2.898,5.043,5.283c1.305,2.386,2.279,5.425,2.922,9.111c0.642,3.691,0.963,8.074,0.963,13.141
		c0,10.514-1.285,18.219-3.852,23.119c-2.57,4.9-6.594,7.354-12.073,7.354c-2.913,0-5.245-0.598-7.001-1.793
		c-1.756-1.188-3.512-3.371-5.266-6.539v7.438h-12.267V-0.001H214.853z M242.595,66.363c0-7.865-0.6-13.193-1.799-15.99
		c-1.155-3.02-3.232-4.528-6.229-4.528c-2.827,0-4.815,1.529-5.972,4.583c-1.156,3.021-1.733,8.238-1.733,15.654
		c0,7.383,0.577,12.6,1.733,15.656c1.156,3.02,3.145,4.527,5.972,4.527c2.912,0,4.987-1.492,6.229-4.473
		C241.996,79.039,242.595,73.893,242.595,66.363z"/>
	<path id="u_1_" fill="#FFFFFF" d="M261.48,37.124h12.268v38.689c0.086,3.58,0.696,6.129,1.83,7.66
		c1.133,1.525,3.028,2.291,5.684,2.291c2.783,0,4.73-0.668,5.845-2.016c1.112-1.416,1.672-3.875,1.672-7.381v-4.645V37.124h12.266
		V71.73c0,8.088-0.685,13.494-2.057,16.215c-2.865,5.295-8.819,7.938-17.853,7.938c-7.104,0-12.161-1.561-15.155-4.693
		c-3-3.17-4.499-8.441-4.499-15.818L261.48,37.124L261.48,37.124z"/>
	<path id="m_1_" fill="#FFFFFF" d="M309.651,37.124h12.266v7.156c3.382-5.403,7.877-8.106,13.486-8.106
		c6.126,0,10.273,2.703,12.46,8.106c3.253-5.403,7.878-8.106,13.875-8.106c4.665,0,8.229,1.071,10.688,3.214
		c2.461,2.145,3.693,5.305,3.693,9.479v46.121h-12.332V56.916c0-4.361-0.471-7.289-1.412-8.776
		c-0.897-1.528-2.654-2.293-5.264-2.293c-2.955,0-4.97,0.783-6.039,2.348c-1.026,1.53-1.539,4.437-1.539,8.724v38.07h-12.718V56.916
		c0-2.047-0.117-3.785-0.354-5.201c-0.231-1.414-0.63-2.551-1.187-3.409c-0.559-0.855-1.285-1.479-2.188-1.873
		c-0.896-0.393-2.008-0.588-3.336-0.588c-2.829,0-4.84,0.838-6.039,2.516c-1.197,1.677-1.799,4.53-1.799,8.554v38.074h-12.263
		V37.124L309.651,37.124z"/>
	<path id="_x33__1_" fill="#FFFFFF" d="M397.706,31.813h-12.715V29.52c0-3.838,0.371-7.135,1.122-9.896
		c0.745-2.758,1.927-5.031,3.526-6.822c1.607-1.789,3.652-3.103,6.136-3.94c2.481-0.839,5.46-1.258,8.93-1.258
		c7.277,0,12.586,1.79,15.926,5.37c3.337,3.578,5.007,9.263,5.007,17.053c0,6.411-0.77,11.033-2.312,13.866
		c-1.496,2.87-4.391,5.051-8.668,6.541c4.621,1.381,7.812,3.521,9.565,6.432c1.753,2.867,2.638,7.475,2.638,13.809
		c0,8.686-1.888,15.076-5.653,19.178c-3.77,4.104-9.633,6.15-17.596,6.15c-13.614,0-20.425-6.803-20.425-20.408v-0.895v-0.615
		c0-0.41,0.021-0.668,0.066-0.783h12.52c-0.04,0.633-0.074,1.184-0.096,1.65c-0.018,0.467-0.031,0.848-0.031,1.146
		c0,2.943,0.738,5.295,2.218,7.043c1.479,1.754,3.498,2.629,6.069,2.629c1.669,0,3.09-0.287,4.271-0.867
		c1.175-0.574,2.139-1.508,2.892-2.795c0.747-1.283,1.293-2.953,1.636-5.004c0.345-2.045,0.519-4.525,0.519-7.436
		c0-5.254-0.914-9.037-2.729-11.35c-1.819-2.311-4.853-3.467-9.089-3.467c-0.473,0-0.984,0.029-1.543,0.084
		c-0.555,0.059-1.196,0.121-1.928,0.195V45.065h1.863c5.18,0,8.69-0.97,10.532-2.907c1.839-1.939,2.76-5.611,2.76-11.015
		c0-8.946-2.587-13.417-7.771-13.417c-5.14,0-7.709,3.818-7.709,11.463L397.706,31.813z"/>
	<path id="_x36__1_" fill="#FFFFFF" d="M453.004,8.665h14.194l-9.312,16.607c-1.624,3.019-3.264,6.224-4.911,9.616
		c-1.649,3.393-3.374,7.008-5.171,10.846c3.726-2.573,7.297-3.858,10.727-3.858c5.52,0,9.779,2.088,12.777,6.262
		c2.826,3.913,4.236,10.921,4.236,21.022c0,9.541-1.648,16.418-4.943,20.631c-3.299,4.137-8.672,6.207-16.117,6.207
		c-7.621,0-13.123-2.295-16.504-6.881c-3.385-4.619-5.071-12.152-5.071-22.59c0-8.758,1.327-17.107,3.979-25.046
		c1.369-3.95,3.395-8.61,6.069-13.979C445.63,22.14,448.979,15.858,453.004,8.665z M462.766,69.104c0-2.982-0.147-5.523-0.448-7.633
		c-0.297-2.105-0.793-3.82-1.477-5.145c-0.686-1.324-1.555-2.293-2.602-2.91c-1.049-0.611-2.322-0.92-3.82-0.92
		c-1.502,0-2.773,0.309-3.823,0.92c-1.049,0.617-1.916,1.578-2.601,2.881c-0.688,1.307-1.176,3.012-1.479,5.115
		c-0.301,2.105-0.447,4.633-0.447,7.576c0,11.293,2.781,16.938,8.35,16.938C459.982,85.932,462.766,80.322,462.766,69.104z"/>
	<path id="_x35__1_" fill="#FFFFFF" d="M492.186,8.665h31.532v10.01h-21.385l-3.21,21.693h1.604c3.896,0,7.352,0.538,10.37,1.621
		c3.021,1.081,5.562,2.666,7.608,4.752c2.059,2.087,3.618,4.658,4.688,7.712c1.069,3.059,1.604,6.545,1.604,10.459
		c0,9.693-2.416,17.311-7.256,22.867c-4.838,5.479-11.559,8.217-20.163,8.217c-4.84,0-10.084-1.193-15.735-3.578l3.34-10.285
		c4.579,2.086,8.411,3.129,11.496,3.129c4.363,0,7.832-1.713,10.4-5.143c2.569-3.467,3.854-8.127,3.854-13.98
		c0-11.066-5.459-16.604-16.375-16.604c-2.699,0-5.418,0.352-8.154,1.062L492.186,8.665z"/>
</g>
</svg>
